<mxfile host="65bd71144e">
    <diagram name="AWS Architecture" id="aws-architecture">
        <mxGraphModel dx="861" dy="666" grid="1" gridSize="10" guides="1" tooltips="1" connect="1" arrows="1" fold="1" page="1" pageScale="1" pageWidth="1600" pageHeight="1200" math="0" shadow="0">
            <root>
                <mxCell id="0"/>
                <mxCell id="1" parent="0"/>
                <mxCell id="aws-cloud" value="AWS Cloud" style="fillColor=none;strokeColor=#FF9900;strokeWidth=2;verticalAlign=top;fontStyle=1;fontSize=14;spacingTop=10;shape=mxgraph.aws4.group;grIcon=mxgraph.aws4.group_aws_cloud_alt;" parent="1" vertex="1">
                    <mxGeometry x="50" y="50" width="1500" height="810" as="geometry"/>
                </mxCell>
                <mxCell id="region" value="Region (ap-northeast-1)" style="fillColor=none;strokeColor=#147EBA;strokeWidth=2;verticalAlign=top;fontStyle=1;fontSize=12;spacingTop=10;shape=mxgraph.aws4.group;grIcon=mxgraph.aws4.group_region;" parent="1" vertex="1">
                    <mxGeometry x="110" y="160" width="1400" height="680" as="geometry"/>
                </mxCell>
                <mxCell id="vpc" value="VPC (10.0.0.0/16)" style="fillColor=none;strokeColor=#248814;strokeWidth=2;verticalAlign=top;fontStyle=1;fontSize=12;spacingTop=10;shape=mxgraph.aws4.group;grIcon=mxgraph.aws4.group_vpc;" parent="1" vertex="1">
                    <mxGeometry x="200" y="210" width="900" height="590" as="geometry"/>
                </mxCell>
                <mxCell id="az" value="Availability Zone" style="fillColor=none;strokeColor=#147EBA;strokeWidth=1;verticalAlign=top;fontStyle=1;fontSize=11;spacingTop=10;shape=mxgraph.aws4.group;grIcon=mxgraph.aws4.group_availability_zone;" parent="1" vertex="1">
                    <mxGeometry x="250" y="250" width="800" height="500" as="geometry"/>
                </mxCell>
                <mxCell id="subnet" value="Public Subnet (10.0.1.0/24)" style="fillColor=none;strokeColor=#248814;strokeWidth=1;verticalAlign=top;fontStyle=1;fontSize=11;spacingTop=10;shape=mxgraph.aws4.group;grIcon=mxgraph.aws4.group_public_subnet;" parent="1" vertex="1">
                    <mxGeometry x="300" y="300" width="700" height="400" as="geometry"/>
                </mxCell>
                <mxCell id="sg" value="Security Group" style="fillColor=none;strokeColor=#DD3522;strokeWidth=1;strokeDashArray=5 5;verticalAlign=top;fontStyle=1;fontSize=11;spacingTop=10;shape=mxgraph.aws4.group;grIcon=mxgraph.aws4.group_security_group;" parent="1" vertex="1">
                    <mxGeometry x="400" y="500" width="500" height="150" as="geometry"/>
                </mxCell>
                <mxCell id="igw-icon" value="" style="sketch=0;outlineConnect=0;fontColor=#232F3E;gradientColor=none;fillColor=#8C4FFF;strokeColor=none;dashed=0;verticalLabelPosition=bottom;verticalAlign=top;align=center;html=1;fontSize=12;fontStyle=0;aspect=fixed;pointerEvents=1;shape=mxgraph.aws4.internet_gateway;" parent="1" vertex="1">
                    <mxGeometry x="620" y="180" width="48" height="48" as="geometry"/>
                </mxCell>
                <mxCell id="igw-label" value="IGW" style="text;html=1;strokeColor=none;fillColor=none;align=center;verticalAlign=middle;whiteSpace=wrap;rounded=0;fontSize=10;" parent="1" vertex="1">
                    <mxGeometry x="590" y="235" width="108" height="30" as="geometry"/>
                </mxCell>
                <mxCell id="iam-execution-icon" value="" style="sketch=0;outlineConnect=0;fontColor=#232F3E;gradientColor=none;fillColor=#DD344C;strokeColor=none;dashed=0;verticalLabelPosition=bottom;verticalAlign=top;align=center;html=1;fontSize=12;fontStyle=0;aspect=fixed;pointerEvents=1;shape=mxgraph.aws4.role;" parent="1" vertex="1">
                    <mxGeometry x="200" y="70" width="48" height="48" as="geometry"/>
                </mxCell>
                <mxCell id="iam-execution-label" value="IAM&#xa;ExecutionRole" style="text;html=1;strokeColor=none;fillColor=none;align=center;verticalAlign=middle;whiteSpace=wrap;rounded=0;fontSize=10;" parent="1" vertex="1">
                    <mxGeometry x="174" y="125" width="100" height="30" as="geometry"/>
                </mxCell>
                <mxCell id="iam-task-icon" value="" style="sketch=0;outlineConnect=0;fontColor=#232F3E;gradientColor=none;fillColor=#DD344C;strokeColor=none;dashed=0;verticalLabelPosition=bottom;verticalAlign=top;align=center;html=1;fontSize=12;fontStyle=0;aspect=fixed;pointerEvents=1;shape=mxgraph.aws4.role;" parent="1" vertex="1">
                    <mxGeometry x="350" y="70" width="48" height="48" as="geometry"/>
                </mxCell>
                <mxCell id="iam-task-label" value="IAM&#xa;TaskRole" style="text;html=1;strokeColor=none;fillColor=none;align=center;verticalAlign=middle;whiteSpace=wrap;rounded=0;fontSize=10;" parent="1" vertex="1">
                    <mxGeometry x="324" y="125" width="100" height="30" as="geometry"/>
                </mxCell>
                <mxCell id="iam-lambda-icon" value="" style="sketch=0;outlineConnect=0;fontColor=#232F3E;gradientColor=none;fillColor=#DD344C;strokeColor=none;dashed=0;verticalLabelPosition=bottom;verticalAlign=top;align=center;html=1;fontSize=12;fontStyle=0;aspect=fixed;pointerEvents=1;shape=mxgraph.aws4.role;" parent="1" vertex="1">
                    <mxGeometry x="500" y="70" width="48" height="48" as="geometry"/>
                </mxCell>
                <mxCell id="iam-lambda-label" value="IAM&#xa;LambdaExecutionRole" style="text;html=1;strokeColor=none;fillColor=none;align=center;verticalAlign=middle;whiteSpace=wrap;rounded=0;fontSize=10;" parent="1" vertex="1">
                    <mxGeometry x="454" y="125" width="140" height="30" as="geometry"/>
                </mxCell>
                <mxCell id="ecs-cluster-icon" value="" style="sketch=0;outlineConnect=0;fontColor=#232F3E;gradientColor=none;fillColor=#ED7100;strokeColor=none;dashed=0;verticalLabelPosition=bottom;verticalAlign=top;align=center;html=1;fontSize=12;fontStyle=0;aspect=fixed;pointerEvents=1;shape=mxgraph.aws4.ecs_cluster;" parent="1" vertex="1">
                    <mxGeometry x="450" y="530" width="48" height="48" as="geometry"/>
                </mxCell>
                <mxCell id="ecs-cluster-label" value="ECS&#xa;ECSCluster" style="text;html=1;strokeColor=none;fillColor=none;align=center;verticalAlign=middle;whiteSpace=wrap;rounded=0;fontSize=10;" parent="1" vertex="1">
                    <mxGeometry x="424" y="585" width="100" height="30" as="geometry"/>
                </mxCell>
                <mxCell id="ecs-service-icon" value="" style="sketch=0;outlineConnect=0;fontColor=#232F3E;gradientColor=none;fillColor=#ED7100;strokeColor=none;dashed=0;verticalLabelPosition=bottom;verticalAlign=top;align=center;html=1;fontSize=12;fontStyle=0;aspect=fixed;pointerEvents=1;shape=mxgraph.aws4.ecs_service;" parent="1" vertex="1">
                    <mxGeometry x="550" y="530" width="48" height="48" as="geometry"/>
                </mxCell>
                <mxCell id="ecs-service-label" value="ECS&#xa;ECSService" style="text;html=1;strokeColor=none;fillColor=none;align=center;verticalAlign=middle;whiteSpace=wrap;rounded=0;fontSize=10;" parent="1" vertex="1">
                    <mxGeometry x="524" y="585" width="100" height="30" as="geometry"/>
                </mxCell>
                <mxCell id="ecs-task-icon" value="" style="sketch=0;outlineConnect=0;fontColor=#232F3E;gradientColor=none;fillColor=#ED7100;strokeColor=none;dashed=0;verticalLabelPosition=bottom;verticalAlign=top;align=center;html=1;fontSize=12;fontStyle=0;aspect=fixed;pointerEvents=1;shape=mxgraph.aws4.ecs_task;" parent="1" vertex="1">
                    <mxGeometry x="650" y="530" width="48" height="48" as="geometry"/>
                </mxCell>
                <mxCell id="ecs-task-label" value="ECS&#xa;TaskDefinition" style="text;html=1;strokeColor=none;fillColor=none;align=center;verticalAlign=middle;whiteSpace=wrap;rounded=0;fontSize=10;" parent="1" vertex="1">
                    <mxGeometry x="614" y="585" width="120" height="30" as="geometry"/>
                </mxCell>
                <mxCell id="logs-label" value="CloudWatch Logs&#xa;LogGroup" style="text;html=1;strokeColor=none;fillColor=none;align=center;verticalAlign=middle;whiteSpace=wrap;rounded=0;fontSize=10;" parent="1" vertex="1">
                    <mxGeometry x="1154" y="255" width="140" height="30" as="geometry"/>
                </mxCell>
                <mxCell id="alarm-label" value="CloudWatch&#xa;TaskStoppedAlarm" style="text;html=1;strokeColor=none;fillColor=none;align=center;verticalAlign=middle;whiteSpace=wrap;rounded=0;fontSize=10;" parent="1" vertex="1">
                    <mxGeometry x="1080" y="598.38" width="160" height="30" as="geometry"/>
                </mxCell>
                <mxCell id="sns-label" value="SNS&#xa;AlertTopic" style="text;html=1;strokeColor=none;fillColor=none;align=center;verticalAlign=middle;whiteSpace=wrap;rounded=0;fontSize=10;" parent="1" vertex="1">
                    <mxGeometry x="1224" y="598.38" width="100" height="30" as="geometry"/>
                </mxCell>
                <mxCell id="lambda-label" value="Lambda&#xa;DiscordNotificationFunction" style="text;html=1;strokeColor=none;fillColor=none;align=center;verticalAlign=middle;whiteSpace=wrap;rounded=0;fontSize=10;" parent="1" vertex="1">
                    <mxGeometry x="1324" y="598.38" width="200" height="30" as="geometry"/>
                </mxCell>
                <mxCell id="ssm-label" value="Systems Manager&#xa;SSM Parameters" style="text;html=1;strokeColor=none;fillColor=none;align=center;verticalAlign=middle;whiteSpace=wrap;rounded=0;fontSize=10;" parent="1" vertex="1">
                    <mxGeometry x="1068" y="453.08000000000004" width="180" height="30" as="geometry"/>
                </mxCell>
                <mxCell id="2" value="" style="sketch=0;outlineConnect=0;fontColor=#232F3E;gradientColor=none;fillColor=#E7157B;strokeColor=none;dashed=0;verticalLabelPosition=bottom;verticalAlign=top;align=center;html=1;fontSize=12;fontStyle=0;aspect=fixed;pointerEvents=1;shape=mxgraph.aws4.cloudwatch_logs;" vertex="1" parent="1">
                    <mxGeometry x="1200" y="206.16000000000003" width="48" height="35.69" as="geometry"/>
                </mxCell>
                <mxCell id="3" value="" style="sketch=0;outlineConnect=0;fontColor=#232F3E;gradientColor=none;fillColor=#E7157B;strokeColor=none;dashed=0;verticalLabelPosition=bottom;verticalAlign=top;align=center;html=1;fontSize=12;fontStyle=0;aspect=fixed;pointerEvents=1;shape=mxgraph.aws4.alarm;" vertex="1" parent="1">
                    <mxGeometry x="1136" y="543.39" width="48" height="48" as="geometry"/>
                </mxCell>
                <mxCell id="5" value="" style="sketch=0;outlineConnect=0;fontColor=#232F3E;gradientColor=none;fillColor=#E7157B;strokeColor=none;dashed=0;verticalLabelPosition=bottom;verticalAlign=top;align=center;html=1;fontSize=12;fontStyle=0;aspect=fixed;pointerEvents=1;shape=mxgraph.aws4.topic;" vertex="1" parent="1">
                    <mxGeometry x="1250" y="543.38" width="48" height="41.23" as="geometry"/>
                </mxCell>
                <mxCell id="6" value="" style="sketch=0;outlineConnect=0;fontColor=#232F3E;gradientColor=none;fillColor=#ED7100;strokeColor=none;dashed=0;verticalLabelPosition=bottom;verticalAlign=top;align=center;html=1;fontSize=12;fontStyle=0;aspect=fixed;pointerEvents=1;shape=mxgraph.aws4.lambda_function;" vertex="1" parent="1">
                    <mxGeometry x="1400" y="540" width="48" height="48" as="geometry"/>
                </mxCell>
                <mxCell id="7" value="" style="sketch=0;outlineConnect=0;fontColor=#232F3E;gradientColor=none;fillColor=#E7157B;strokeColor=none;dashed=0;verticalLabelPosition=bottom;verticalAlign=top;align=center;html=1;fontSize=12;fontStyle=0;aspect=fixed;pointerEvents=1;shape=mxgraph.aws4.parameter_store;" vertex="1" parent="1">
                    <mxGeometry x="1134.9299999999998" y="398.08000000000004" width="46.15" height="48" as="geometry"/>
                </mxCell>
                <mxCell id="13" value="Discord API" style="rounded=0;whiteSpace=wrap;html=1;align=center;verticalAlign=top;arcSize=28;fontFamily=Helvetica;fontSize=12;fontColor=default;fillColor=#333333;labelPosition=center;verticalLabelPosition=bottom;" vertex="1" parent="1">
                    <mxGeometry x="1571.5" y="380" width="96" height="96" as="geometry"/>
                </mxCell>
                <mxCell id="14" value="" style="shape=image;verticalLabelPosition=bottom;labelBackgroundColor=none;verticalAlign=top;aspect=fixed;imageAspect=0;image=data:image/png,iVBORw0KGgoAAAANSUhEUgAAAhAAAAGQCAYAAAD/WFnMAAAAAXNSR0IArs4c6QAAAERlWElmTU0AKgAAAAgAAYdpAAQAAAABAAAAGgAAAAAAA6ABAAMAAAABAAEAAKACAAQAAAABAAACEKADAAQAAAABAAABkAAAAABLO3lGAAA5f0lEQVR4Ae2d/3nbNteG617f/9U7QekJqkxQeoKqE0SeIM4EtidoMkGUCaJOYHaCqBOEnaB6J+j3HL2kK8uURFIgiR83rgshRYLAOTdA6OEBrVx9R4JApAT++eefTK5ZzpV/Us6U58rF1dXVjbYkCFxMQONsqUrulUvlP6ptqTFWaJ8EgWgJXEXrGY4lRUCTuAkDy5nyz9X+TNtj6VYT/OrYSY5DoC0Bjb1vKpsdKb/R8VL5T+VCeaNxt9WWBIHgCSAggu/C9ByoIgu5PLeogokG2++a7AnxuutFlIfAPgGNxQd9tuhDl1SqsAkLREUXapT1jgACwrsuwaB9ApqgZ/qcK5tQaBNZULHW6VEi4qF1aQpCYI9ANTYt+mBj9NJUqoJnUaFxWVxaIddDYGgCCIihCVN/JwKalE0o5MoWXbBtpjxU2qria03WtiVBoBOBntGHLm2YoCiUd5EKjdNS+yQIeEMAAeFNV6RpiCbhXJ5brgXDTPtjpkdNzA9jNkhb4RPQuM3khUUfxkwmdAvlP5TtXQrbJ0FgMgIIiMnQp9nwnmCw5YjcAwo2Kb/h6c6DngjIBI3jTzJ36YHJhWwwQWF/WWT7JAiMRgABMRrqNBvyUDA0dcRKk+9t0wmOQeCQwETRh0Mzjn0udAJBcYwOx50SQEA4xUllmlznopArW4RhoRxKuiYKEUpXTWunR9GHNiDWKlQLik2bCygDgbYEEBBtSVGukYAm05lOmFColySyxoL+HyQK4X8fTW6h59GHc3y2KrBWrgVFee4CzkPgFAEExCk6nGskUEUZTDT8ojxvLBTmQaIQYfbbaFZr7H9RYzb2Y0gbOVEo/67om21JEOhEAAHRCVeahQ+iDDZ5ziIlQRQi0o514Zbug1z1PLmoy8M6trKpUP7dtizniQLpLAEExFlEaRbQZJnJcxMLFmXIlVNJRCFS6emOfuqeMPGQd7ws1OIbGW5iYi0xYfskCLwigIB4hSTdA5og5/L+rbIJh0w5xUQUIsVeP+NzdW98PVMs1tOlHFsr/yExYVsSBHYEEBCJDwRNjCYW7AXIlEXD4SggCnFIJPHPuk8+CcEycQzm/lbZRIS9N2FbUsIEEBAJdn4lGmxpwkTDLEEE51wmCnGOUELndb9kcvdbQi53cXUnJnSBLXVsu1xI2fAJICDC78NWHiAaWmHaL0QUYp9GwvtEH1p3PmKiNao4CiIg4ujHRi8QDY1Y2h4kCtGWVMTliD707tydmFBUYtW7Bi70ngACwvsu6magJry5rkj9Rchu0I6XJgpxnE0SZ4g+XNzNtqxRiwnbkiIigICIoDOrp6SlXDHhkCmT3BAgCuGGY5C1EH1w3m0mJlbKnxWZ2DivnQpHJ4CAGB25mwY1uc1U00L5nfLcTa3UckBgq88WhbAtKTECusce5PJ9Ym6P5W6phj4rm0i3fVKABBAQgXWaJjUTDfYXFMvATA/V3EdNcA+hGo/d/QhUAt3+8mLWrwau6kCgUFkTE/wlRwdoPhRFQPjQC2ds0GSWqYhFGkw82D5pPAJbCYj/jNccLflAgOjDJL1gkb618mfdc8UkFtBoJwIIiE64xitcPQGZYGCJYjzsx1q61YS2OnYylOMaU3PZOhvY3o1YbQduY/DqxcqiD9ngDdHAMQKlTnxUtqiE7ZM8JICA8KxTqkm+jjYMPdl75r235pSaxK6nsE7jIVO7luuU1zvV9ueDzzZm5gfHfPhoomJzYEipz3/tHbPPlndJzItqd9SNmC/V4KdRG6WxUwTWOvlZ48G2JI8IICA86AxNWDOZsVAm2uBBfxwx4cbVF9qBKMir9n7UNqv259ramCD9S2Cj3W318Y9qW2pr+TtXfWN1qX++amN9QPKLQClzPivz4qUn/YKAmLAjqi+Se5mwUJ5NaApNnydQ6Evq5lyxSgzal4/1p21/qLbaJPM/OZqvU6VSDVveKv9ZbTe2Vf/Z9mRS/+Uq8HSyECd9ILCWER9dCkcfnArNBgTEBD2mSWqpZt8q58qkcAhca8Iq1X9zmTxTzpVrgWCf7TjJbwJbmbdRLpX/qra2v3t3Q337RfsLZVIYBEqZae9KWFTC+pY0IgEExEiwNTFlamqpbMIhUyZBAAJ+EbAvoJlfJmFNSwLWd2vlRxP5La+h2IUEEBAXAjx3uYRDrjImGpbKJAhAAAIQGJZAoeptecMEBWlAAgiIgeBKOCxVNcsUA/GlWghAAAJnCJQ6z/LGGUiXnEZAXELv4FqJBgt/3imzTHHAho8QgAAEJiKwVbsrZYtKlNqSHBFAQDgAWb3f8E5VLZVNRJAgAAEIQMA/AiuZ9FlCovDPtPAsQkBc2GcSD7+pCos6kCAAAQhAIAwChcx8LyGxCcNcP61EQFzQLxIPJhxMQJAgAAEIQCAsAvanu2/CMtkva7/3y5xwrKmWLe7DsRhLIQABCEBgj8Bc8/jD3md2OxIgAtERWF1cA+9J+3n9mS0EIAABCARJ4A1LGf36jQhED27V0kXe41IugQAEIAABvwh88succKxBQHTsK5YuOgKjOAQgAAG/CbCU0bN/WMLoCI6li47AKA4BCEAgDAIsZXTsJyIQHYCxdNEBFkUhAAEIhEWApYyO/YWAaAmMpYuWoCgGAQhAIEwCLGV07DeWMFoCY+miJSiKQQACEAibAEsZLfuPCEQLUBIPCxXLWxSlCAQgAAEIhE2ApYyW/YeAOANK4mGmIgyoM5w4DQEIQCASAixltOxIBMR5UPZT1SYiSBCAAAQgkAaBd9V7b2l429NL3oE4AU4DKNfppxNFOAUBCEAAAnESKPQLlTdxuubGKyIQRziydHEEDIchAAEIpEEg1/eA/YeJpCMEEBBHwOiwDZzs+GnOQAACEIBA5ATuq4fJyN3s5x5LGA3cNGDmOvy14RSHIAABCEAgLQJrLWX8mpbL7bwlAtHMyV6cJEEAAhCAAAQWeqjMwfCaAALigIkGii1d5AeH+QgBCEAAAukS+KTvhlm67jd7joDY41INkPu9Q+xCAAIQgAAEMiGwh0vSHgHegdiDIQFhPxi13DvELgQgAAEIQKAmwM9c1yS0RUBUMCQecu3ymw8VDzYQgAAEIPCKAL8NsYeEJYx/YVj0gQQBCEAAAhA4RsB+G2J57GRqxxEQ6nENiAdtMmUSBCAAAQhA4BSB3/SdwQuVIpS8gNBAyMTh3anRwjkIQAACEIBARcDEA3/qLwjJC4hqIKAmqzuDDQQgAAEInCWw1MNnfrZU5AWSfomyGgC8OBn5IMc9CEAAAgMQ2OgXKt8MUG8wVaYegeDFyWCGKoZCAAIQ8IrAXA+hSf82RLICour4zKvhiDEQgAAEIBASgXt9lyS7BJ7kEkbV4d80SpPt+JDuUGyFAAQg4DGBlZYybj22bzDTUo1A2Bu0iIfBhhUVQwACEEiGgL1QOU/G2z1Hk4tAqKNz+c+Lk3uDgF0IQAACELiIQJK/UJliBOL+omHCxRCAAAQgAIGXBJL8hcqkIhCKPizV5/zlxcuBzycIQAACELicQKkq7D/b2l5eVRg1JBOBqF6cJPoQxrjESghAAAKhEchk8F1oRl9ibzICourY7BJYXAsBCEAAAhA4QeBeD6vZifNRnUpCQFQdyv93EdXQxRkIQAACXhJI5v/JSEJAaIjZ0gV/tunlvYZREIAABKIisNBDax6VR0ecif4lSnWk/X3u1yP+cxgCEIAABCDgmkASf9aZQgQimXCS6zuA+iAAAQhAoBeBJP6sM+oIRBVGeurV/VwEAQhAAAIQ6E+g1J90Xve/3P8rY49A8JsP/o9BLIQABCAQI4FMD7EPMTpW+xStgFDHLeVkVjvKFgIQgAAEIDAygXf6Lor2Bf4oBUTVYbz7MPKdQnMQgAAEIPCCgImHaH/AMEoBoQ67U45W9b0YnnyAAAQgAAGfCdzpoTbz2cC+tkUnIKrow7u+QLgOAhCAAAQg4JhAlFGI6ASEOt06iuiD49FPdRCAAAQg0JvAUg+3ee+rPb0wqj/jrMJE3zxljVkQgAAEIJAugeh+XCq2CESUYaJ07zc8hwAEIBANAftxqTwab+RINBEIog8xDUt8gQAEIBAlgaiiEDFFIIg+RHm/4RQEIACBaAhYFGIRizdRRCCqsNBTLJ2CHxCAAAQgEC2BaH7iOpYIBNGHaO81HIMABCAQFQH7ietlDB4FH4Eg+hDDMMQHCEAAAkkRiCIKEUMEguhDUvcdzkIAAhAInkAUUYigIxBEH4K/iXAAAhCAQKoEgo9ChB6BIPqQ6q2H3xCAAATCJhB8FCLYCATRh7DvHKyHAAQgAIHvgo5ChByBIPrA3QcBCEAAAiETCDoKEWQEguhDyPcLtkMAAhCAwB6BYKMQoUYgiD7sjT52IQABCEAgWALBRiGCi0AQfQj2JsFwCEAAAhBoJhBkFCLECATRh+YByFEIQAACEAiTQJBRiKAiEEQfwrwzsBoCEIAABM4SCC4KEVoEgujD2TFIAQhAAAIQCJBAcFGIYCIQRB8CvB0wGQIQgAAEuhAIKgoRUgTibZdeoCwEIAABCEAgMAJBRSGCiEAo+pBpEHwLbCBgLgQgAAEIQKArgWCiEKFEIHj3oesQpDwEIAABCIRIwKIQeQiGex+BIPoQwjDCRghAAAIQcEiguLq6unFY3yBVhRCBeDeI51QKAQhAAAIQ8JNAHkIUwmsBIYAz9e3Sz/7FKghAAAIQgMBgBLx/ePZaQKhb7pRNRJAgAAEIQAACKRFYVEv43vrs9TsQgve3yCEgvB0+GAYBCEAAAgMSWOldiNsB67+oam8jEBIPS3mGeLioe7kYAhCAAAQCJrD0OQrhrYBQh/OnmwGPekyHAAQgAAEnBJZOahmgEi+XMKS4FvL1ywD+UiUEIAABCEAgJAJbGXutpQzbepV8jUB4//apV72IMRCAAAQgECsBW8q3h2rvkncRCEUf5qL01TtSGAQBCEAAAhCYhoCXP2/tYwSC6MM0A5RWIQABCEDATwL289beRSG8ikAIkIVq/vaz/7AKAhCAAAQgMBkB737e2rcIxN1kXUPDEIAABCAAAX8J2M9bZz6Z51sEwqIPFoUgQQACEIAABCDwkoBXPyzlTQRCymopToiHl4OFTxCAAAQgAIGagP2wlDffk94ICNHh5cl6iLCFAAQgAAEINBNYNh8e/6gXSxhSVHO5/nV892kRAhCAAAQgEBQBb/6k05cIBNGHoMYvxkIAAhCAwEQEvPmTzskjENV6jr08SYIABCAAAQhA4DwBL/6k04cIxPI8K0pAAAIQgAAEIFAR8OJPOn0QECxfcE9AAAIQgAAEuhGY/Ltz0iUMLV8sxOtLN2aUhgAEIAABCCRPYKv/ofM/U1KYOgLxdkrnaRsCEIAABCAQKIGZHsKXU9o+WQRCjmdy/NuUztM2BCAAAQhAIGACk75MOWUEYhlwp2E6BCAAAQhAYGoCk75MOaWAYPli6qFH+xCAAAQgEDqByV6mnGQJg5cnQx+v2A8BCEAAAp4QmOxlyqkiEEQfPBl5mAEBCEAAAkETmOxlytEjEIo+2P8k9nfQ3YXxEIAABCAAAX8ITPIy5RQRiKU/zLEEAhCAAAQgEDyBSV6mnEJATPbCR/BDBAcgAAEIQAACzQSWzYeHOzrqEoaWL/hvu4frS2qGAAQgAIF0CYz+33yPHYEg+pDu4MZzCEAAAhAYjsDo/8332ALC/u8LEgQgAAEIQAAC7gn84r7K4zWOJiC0fLGUGfYXGCQIQAACEIAABNwTWFZ/6ei+5oYaRxMQantUZdTgK4cgAAEIQAACsRMYLdI/ykuUUkSZeoz/OCv2YYt/EIAABCAwNYGN/pvvN2MYMVYEYjRFNAY02oAABCAAAQh4SmBePbQPbt5YAoKfrh68K2kAAhCAAAQgsCMwykP74EsYUkJzufOVToUABCAAAQhAYBQCo/wmxBgRCKIPo4wXGoEABCAAAQjsCNhvQtjD+6BpDAExSihlUEpUDgEIQAACEAiLwOAP74MKiEoBZWExx1oIQAACEIBA8AQGf3gfVEAIPz9dHfwYxAEIQAACEAiQgC1j5EPaPbSAGFwBDQmHuiEAAQhAAAIBExh0GWMwASHlY+JhFjB4TIcABCAAAQiETGDQh/jBBISI89PVIQ87bIcABCAAgdAJzKqH+UH8GFJADKp8BqFBpRCAAAQgAIG4CAz2MD+IgGD5Iq7RhzcQgAAEIBAsgcEe5gcREMI8mOIJtgsxHAIQgAAEIDA+gcGWMYYSEIMpnvHZ0yIEIAABCEAgaAKDPNQ7FxAsXwQ9yDAeAhCAAATiIzDIQ71zASHugyid+PoTjyAAAQhAAAKjEBhkGWMIATGI0hkFMY1AAAIQgAAE4iTws2u3nAoILV/MZeDMtZHUBwEIQAACEIDARQScP9w7FRBybdCfzbwIHRdDAAIQgAAE0iXg/L/4di0gnCucdPsazyEAAQhAAAJOCTh9yHcmIKrli8ypq1QGAQhAAAIQgIArArmriqweZwJCdeVWIQkCEIAABCAAAS8JzPWwn7myzKWAcBoaceUg9UAAAhCAAAQg8EzA2asGTgREpWjmz+axAwEIQAACEICAjwSc/VaTEwEhQrmPlLAJAhCAAAQgAIEXBHI99M9eHOn5wZWAcKZoevrBZRCAAAQgAAEItCPgZBnDlYBwYkw7vykFAQhAAAIQgMAFBJz8KuXFAkKhEMTDBb3IpRCAAAQgAIGRCTj53v4/B0Y7UTIO7KCKOAkUcqtU/qva2v6plOmk5R+rba4tCQJTECjVqOU/lC0Vu39P/5NXp21ezapcHWIDAWcE7D/Xml9dXW0uqdGFgHCiZC5xgmujIrCWNzbhFpcO7pqK3Sjaz5VtUrbtTJkEAdcENqqwUK7H77ZHA3b9c6pedst1oB67NpZJEHBBYKFKbMz2Tle9r9SFGtyZNt8uqYNrkydgk+xa+XcJBtsOnjRuF2rEXvy17WzwBmkgZgIbOfdZea3xWw7taDXn2rh9qzwfuj3qj5rARmP2zSUeXiog7tT4b5cYwLXJEijl+aOyTbzbqShoQl6qbZuMc2USBNoQsPG6Vv6osbtpc8EQZTR256r3nfJCeTZEG9QZPYH/XDL/XiogvgivDV4SBNoSKFTwUYPWtt4kTca5jDEhsVQmQaCJwFYHPyp/uGTSbar4kmMauyYe7pRNTNg+CQJtCdxqLK/aFj4sd6mA+FsVMmAPqfK5icBGB9/7JhwODa2ExL2O54fn+Jwsga089044HPYGQuKQCJ9bEFhpTr5tUa6xSG8BUU20T421chAC/xKwyfdRg/TDv4f836vG9ydZmvlvLRYOSGCtuk34lgO24bRqjd1MFf6mvHBaMZXFSKDU2L7u69j3fS/UdfkF13JpGgRs8r3WAA1KPFjXyOZCG3vBKDjbZTPpcgJbVfGrxoHl8vLqxqvB7DW71eKNcjley7QUIIFMgnPe1+5LBMQvfRvluugJ2OR7a5OYsu0Hmcx25fcynok4yB7sbfRaV16r720bbJL9hYw3ERy0H8F2QDiG531N7SUgpFhmanDet1Gui5rARt7daPJaxeIlE3EsPdnKD1uuCFr47nspX0wEWzTiVnm7f459CFQEfu5LopeAUGN53wa5LmoCa3l3ownLRERUaW8ifozKMZypCdiX6xv184f6QExb+bWSPxZJMz9JENgnkO9/6LLfV0D0VixdjKNsUARWmqSieXI7Rl4+PuicPc2R4iFggvdGfWvbaFPl37UcjNrPaDtwOMd2P2vdp/q+AiLv0xjXREvgVpNTMl+q8nWlnrS1ZZ7mwh/SSYiHups0dm3MWiQCEVFDYWsEFn0wdBYQvP/QB3PU15h4WEXtYYNz8nn3xaNTNiGTwiSw68PqSzVMD3pYXfmLiOjBLuJLeq0qdBYQAphHDBHXuhG41WS06nZJPKXlOyIi3O5MUjzU3YWIqEmwrQjkfUj0ERC9lEof47jGawL2zsPKawtHMK4SEfaWOykcAqVMvam+RMOx2rGllf9EIhxzDbU6rS7kXW3vIyA6N9LVKMp7T8DEQzLvPJzrDbEoVAYe50D5cd6WnKJ/2bct6j0RYVxIaRPIu7rfSUDw/kNXvFGWt9Dv+yg9u8ApTcQrXf54QRVcOg4BEw82hkkVAUQEQ6Ei0Hl1oZOAUCM5qJMmwNPbie7XRPyg08WJIpyalsCj+oj+aegDceHBoIFLYofmXf3tKiA6K5SuBlHeawK3mmhKry2c3jh7H8KEFskvAoXG7oNfJvlljfisZJFlUpoEOv8eRFcBkafJFa9F4IMmmDUkThMQIxMPvFR5GtPYZ+mT9sRtebJsX5ySkRHIu/jTVUDMu1RO2WgIlPKE9f2W3SkRUajoh5bFKTY8gdtK2A3fUuAtVJx4ITjwfrzA/E6rDK0FRJ8/8bjACS71iwATcPf+MMFVdr+MKxwTWOtLce24zqirE69CDiKAo+7lo851ChK0FhBqLj/aJCdiJmATcBGzg0P4JmZb1ctfqwwBt32d9EF7VoclEcCHRNL4nClYkLV1tYuA6BTaaGsA5bwmwAR8QfdUT77FBVVw6WUEPqoPysuqSPPqSgCzbJlm9+dt3e4iIDqFNtoaQDmvCTABX949rCdfzrBPDSZ+P/S5kGv+R0AiYqW94n+f+DchAj+19bWVgFBIw8TDrG2llIuCABOwg26snoBXDqqiim4E3ldP0d2uovQhAaIQh0Ti/5y3dbGVgFBlJiBIaRGw6IOJCNLlBJiEL2fYpYayenrucg1lGwiIY6HDlknpEGj9fd9WQLQOaaTDOGpPiT447F5NwqWqWzmskqpOE/h4+jRnOxKAZ0dgoRdv+1eXbQVEHjoQ7O9EwP6zLKIPnZCdLcwkfBaRkwI2bldOaqKSHQHNBWvtlOBIisC8jbdtBUSryto0SJkgCPBl57ibNAlvVGXhuFqqe00A8fuaiYsjLMO5oBhOHa3+6vKsgGgbygiHC5aeIWD/Z0B5pgyn+xH43O8yrupAAPHbAVaHohaF2HYoT9GwCbQKGpwVEGLQqqKwWWH9HgG+5PZguNyVMFupPiZhl1Bf1rVB/L4E4uqTuNq4Xbuqj3q8J2A/KDU7Z2UbAcELlOcoxnN+W33JxeORf54wCQ/XJ0QfhmNrNf8+bPXU7hmB+Tl72giIs5Wca4TzwRDgy234rmISHo4x43c4tt/p4cL4bgdsgqr9IpCfMwcBcY5QWuf5chu4v5mEBwNs7+7w5TYY3ueKEWnPKKLfObv6cFJA8AJl9APk0MHi8ACfByEAZ/dYEb/umTbVCOcmKnEem59z66SA0MVnKzjXAOeDIcAT3HhdxSTsnnXhvkpqbCAA5wYokR46+yLlOQFxNoQRKbgU3fojRacn8rmYqN1Ym7WXfzexOueTX9UyEax96pRhbTkZRDgnIE5ePKzd1D4ygWLk9pJtTpNwKectk9wQKNxUQy0tCcC7JagIip3UAAiICHrYhQv6Uitc1EMdrQnwFNca1dmCf54tQQGXBIhWuqTpd10nVyGOCgi9QHlSefjtM9Z1JMCXWUdgDorzpecAYlVF4a4qampBoGxRhiJxEDipA44KCPl+8sI42OBFRQABMf5QKMZvMtoWGb8jdi3vm4wIe/qmTuqAUwIim952LBiJwF8jtUMz/xIo/91l7wIC9gLl9oLrubQfgaLfZVwVGoFTqxGnBESr/40rNBjY20igaDzKwcEIVC9SDlZ/QhUTfZimsxFt03CfotXsWKOnBMTRi45VxnEIQKATgbJTaQo3EYBhE5Xhj/EOz/CMfWnh6DIGAsKXLprQDv4CYzL45WQtx9Mwy2/x9CWe+Eng6GpEo4DgJ6z97EWsggAEXhEglP4KySgHWDoaBbMXjWTHrGgUECp89IJjFXE8WAJMwNN1HZPw5exheDnDPjUwb/ShFuY12TGzERDHyKRznAl4ur7+73RN0zIEIACBdgSOrUocExBH1zzaNUcpCEAAAhCAAAQiITBr8uOYgMiaCnMMAhCAAAQgAIHkCMybPEZANFHhGAQgAAEIQAACNYHG/xPjlYA49atTdU1sIQABCEAAAhBIhkDW5OkrAaFCjQWbLuYYBCAAAQhAAALRE2i9hNFYMHo8OAgBCEAAAhCAQCMBrU5khyeaIhA/HhbiMwQgMAgB/tppEKxUCgEIDEAgO6yzSUC8KnR4EZ+jIpBH5Q3OpEag8c/LUoMwgb/5BG3S5LQEXq1ONAmIV4WmtZnWIRAtAb78Lu9a5qvLGVIDBNoQeDVfNQmIV4Xa1EyZcAk0rW2F601QlvPlF1R3YewegcY/69s7z258BF4tub4QEMd+rjI+Dnh0QCA7+MzHgQnoXkOou2HMF5kbjl1rYfx2JRZ++Vd9/kJAhO8fHvQkkPW8jsv6EyD60J/d/pWvJrX9k+wPRoDxOxhabyt+1eeHAiL31nQMG5JANmTl1N1I4NXN2FiKg+cI5OcKcN4tgSp6hnBzizWI2g4jp4cC4ocgvMBI1wRerW25boD6XhEg9P4KSb8DmtQQY/3Q9b0K3n3JhX/di74/FBAvTobvKx60JEC/twTlsBjM3cHM3FVFTS0I5C3KUCROArN9tw4FxIuT+wXZj5rATE9xWdQe+uccAsJdnxBBc8eyTU1Ez9pQirPMi3nrUEC8OBmn/3h1hEB+5DiHHROQWIO1W6bwdMvzXG3wPkco3vMvXnM4FBDxuo1n5wjwFHeOkLvzubuqqEkE5ocvd0FlGALV+yZEqofBG0KtL4IMzwKCp6IQ+m5QGxeD1k7l+wR+2f/AvhMCuZNaqOQcATifIxT3+Rfi8VlAxO0z3rUgYO9BvFCXLa6hSEcCYpzpEjh35NaiOKKsBSQHRd46qIMqwiXwYu7aFxB5uD5huSMCTA6OQJ6oJj9xjlP9CSz6X8qVbQggfttQSqvMvoBIy3O8bSLAJNxExe0xnpTd8qxrswga47emMcwWvsNwDapW3Wd5bfC+gPipPsg2WQKZBsc8We8Hdrx6gmMSHo4z4mw4tlYzEcph+QZX+76AmAVnPQYPQeDdEJVS544A4mHYgbCQSGMeG4BxJX7nA1RNleEReB4HCIjwOm9oi5mEhyOMOBuOrdVs4mExbBPJ1s7YTbbrXzlu99ku7QuIZ1VRn2SbJAEm4QG6XU9w9sWWDVA1Vb4kwBfdSx4Xf6qiOsuLK6KCWAj8UDuyLyDqY2whcA8C5wT4YnOOtLHCub7w8sYzHOxLwMSvPViQIGAE5jWGnYDQDfd8oD7BNmkC9jLlMmkCDp2vvtByh1VS1WkCCODTfLqehWdXYomUryMQqMtEOryDm0waHWCdKQrLM4Acn86JQrghWj1IZG5qo5ZICDwHHGoBEYlfuOGQAFEIBzCJPjiA2K8KRFs/bodXwfGQCJ+fAw61gMhhAoEGAvf6AnweLA3nOXSeABPweUZDlCAKcSFV3ft3qiK7sBouj5hALSAidhHXLiCQ6VqbREg9CGgCXuiyvMelXOKGwCc31aRXS/XggPhNr+tbeazxkVtBBEQrXEkXeqfBkiVNoIfz1QT8W49LucQdAVuGe3BXXVI1mXgg+phUl3d3thYQP3e/lCsSIWCTCE9y3TvbIjdZ98u4wjEBBHBHoNXTpY1fEgROEqgFxMlCnEyegK0nM6G0HAZiNVdRwr8teQ1cbKb6EcAtIWvswqslq8SL5eY/AiLxUdDB/fvqi7HDJekVrSbgL+l57rXHJoAfvLbQH+NM+Gb+mIMlPhOoBUTus5HY5gWB3ZNJ9QXphUGeGmHvPWSe2payWfcauxYZIh0hID4Lnbo7cprDEHhFoBYQr05wAAINBGwC5sXABjB2SBPwUhvLJD8JPKmPZn6aNq1V4pLJApZ6pu2GkFr/yYxFQITUZX7YutRkw1PKQV+IiYkrJuADLp59NPHw5JlNk5tTiSpbdkNcTd4bwRiwGyvfV8ozGKsx1AsCv2ncLL2wxAMjqnuILyYP+qKFCfafbSH0XoIyHiaASRDoRMAiEFmnKygMgf8RMBGR/KQjBqbEeXoL666wKBoiQn1WcViE1X1Y6wsBljB86Ynw7LAvzidNQMmKCPm+YyAOyTIIb9g+W2wi4uH5U4I78t9E1DJB13H5cgK5VYGAuBxkyjUkKyIQD1EM+3v1Y5IvBSMeohi/kzvBEsbkXRC8AbWIWATvSUsHEA8tQYVR7K76Mg3DWgdWIh4cQKSKHQEEBAPBBQETEV80MS1dVOZzHfJxLvu+KtuWFAeB3TsR6lsbx9Em80+ZZYtoe3h8x1jCGJ95zC1+qiaoKH2Ubws59qScRelg2k4t5f6T+jiLEUPll43dZYz+4dP4BDSm5giI8bnH3qI9zX2NbSKWPw/qOP7aIu7Ru4suqa9NKEaT5E8uZ4iaRdOj3jgyQ0B40xdRGRLNRGxCSNme3O6j6iGcOUZgphO2HGd/pmz7QSfzQw7Y+A3el6A7IlLjTUD8FKlvuDUtgXoitsk4m9aUfq3L7jtdaU9ueb8auCpgAru+1xgIsu/NbmUbu+YHCQKDEDABYRM9CQJDEVioYlvSeBiqAdf17k2+9vTG/eEacDj1ZTL1SePhk7Lte59kZ/2ipEUd5t4bjIFBE2AJI+juC8Z4+xK+1+T2TXnpq9WyzZYrvsg+Jl9fO2kau5ZqdieCNT68FJRml/KD7PymvFQmQWBoArxEOTRh6n9BINOnT5rovinby5ZeTMayw8K9n2SbTb4LZRIEDgnsRLAOftNYsfcjssMCU3w2O5Qf1LaN3XtlL+4p2UGKn8DsSoPvSX7m8fuKhx4S2MqmtfLHq6urzZj2adzbRLtQfqc8H7Nt2oqGwFqefNbYte2oSePXxu4vystRG6YxCPxL4BEB8S8M9qYlUKr5ekLeDGGKJt1M9ebKNvHaBEyCgAsCW1ViY/d35UKCwj47T3uiwcbuzHkDVAiBbgR2AsJCX1m36ygNgUEJ2ARcKP9ZbUtNyqX2OyVNuLkuyJR/Vp5XWRsSBAYlUKj2jfIfyjZ2bb9T0ti18Zop29bGb65MgoBPBHYC4h+fLMIWCJwgYBPxtjpvk/N++kkfZtUBm3Tr/f0y7ENgKgKlGrZsaaP8393e//75QRsbs5ayKts+CQI+E0BA+Nw72AYBCEAAAhDwlMAjf8bpac9gFgQgAAEIQMBjAj8jIDzuHUyDAAQgAAEI+EoAAeFrz2AXBCAAAQhAwGMCCAiPOwfTIAABCEAAAr4SQED42jPYBQEIQAACEPCYAALC487BNAhAAAIQgICvBBAQvvYMdkEAAhCAAAQ8JoCA8LhzMA0CEIAABCDgKwEEhK89g10QgAAEIAABjwkgIDzuHEyDAAQgAAEI+EoAAeFrz2AXBCAAAQhAwGMCCAiPOwfTIAABCEAAAr4SQED42jPYBQEIQAACEPCYAALC487BNAhAAAIQgICvBBAQvvYMdkEAAhCAAAQ8JoCA8LhzMA0CEIAABCDgKwEEhK89g10QgAAEIAABjwkgIDzuHEyDAAQgAAEI+EoAAeFrz2AXBCAAAQhAwGMCCAiPOwfTIAABCEAAAr4SQED42jPYBQEIQAACEPCYAALC487BNAhAAAIQgICvBBAQvvYMdkEAAhCAAAQ8JoCA8LhzMA0CEIAABCDgKwEEhK89g10QgAAEIAABjwkgIDzuHEyDAAQgAAEI+EoAAeFrz2AXBCAAAQhAwF8CGwSEv52DZRCAAAQgAAFfCfzXBMTGV+uwCwIQgAAEIAABPwmYgNj6aRpWQQACEIAABCDgKwGWMHztGeyCAAQgAAEIeEwAAeFx52AaBCAAAQhAwFcCCAhfewa7IAABCEAAAh4TQEB43DmYBgEIQAACEPCUwO7POHmJ0tPewSwIQAACEICApwS2FoH401PjMAsCEIAABCAAAU8JsIThacdgFgQgAAEIQMBnAggIn3sH2yAAAQhAAAKeEkBAeNoxmAUBCEAAAhDwmEBpAqL02EBMgwAEIAABCEDAMwJXV1cICM/6BHMgAAEIQAACQRBgCSOIbsJICEAAAhCAgF8EEBB+9QfWQAACEIAABHwnsPv9KBMQ/JCU712FfRCAAAQgAAF/CGzMlO/1IsRuxx+7sAQCEIAABCAAAd8JsIThew9hHwQgAAEIQMBDAggIDzsFkyAAAQhAAAIeEyjNtlpA7D7YARIEIAABCEAAAhA4QeAvO4eAOEGIUxCAAAQgAAEINBOoBUTzWY5CAAIQgAAEIACBBgK1gOBPORvgJHSolK+3yoUyCQIQgMAxAiudeK/Md8YxQmkcL8zNWkD8mYbPeNlAYK1jb/TnvCvlG9tXXimTIAABCBgBEwuPyteaI26VP2jf5opSmZQwgVpAJIwgadffazL4Vfn5aUL7G2WLRlwr20TxfC5pUjgPgfQIlHLZog3XmhMelO3zLml/ox172Ch2B/gnSQJX5vU///xzp81vSRJI02kTBTfVJHCSgMbGTAWWyu+UM2USBCAQN4FC7n3W/LBq46bmCPvusO8QUiIENDZ22qEWELn8fkrE99TdLATgRdShLRBNFAuVNSGRt72GchCAQDAEVrL0o74bNl0truaGT7rOHjhIkROoBQRLGJF39IF7j+r4G+XtwfFWH3Xd2q5X4WvllXKvenQdCQIQ8INAKTMelf+je/tWubN4MDd03VobW9Lodb3VQQqPQC0g+CIIr++6WGz9e6Ob/KHLRcfKqp5S+VbnTUjYtlQmQQAC4RAoZKpFIq+VH5Qv/g5QHTYvmIgwQUKKl0BRu3ZV7ygE9U+9zzYqAmt5c+tigjhFRcMn1/m3yktlEgQg4B8BEwkrZVumKLUdLFXzgS1pZIM1QsVTESg0fm6scQTEVF0wTrt15GEzTnO7F3JnamupbGJirkyCAASmJbBW85816dt2tCQRsVRjJiJIcRGwpexfzaV9AbHQZ+vsmZ0gRUVgJW/eq9O3Y3qlCWSu9uylSxtbjKsx4dNW6gRKAfisvNJ9b/ujpeq+t7/MyEdrlIbGImDfITcaUxtr8FlA2Ad1vE3yX5RzZVJcBKzjLXT5MIVb1dPIL2p7MUX7tAmBBAjYPb5W/qz7vBjb3+r7417t3o3dNu2NQsDG1q3Glo2zXXohIOqDGggP2reBQIqPQCmXHjUIVlO4Vk0yS7X9Vnk+hQ20CYHICNjE/vtU97SxrL4zLNo4s8+k6AhYBPvDoVeNAsIKaUDY5G7RiEyZFB+BQi6ZkLDtJEljLFPDS2UTE5kyCQIQaEegULHPyrYevW13iftSuoeXqtUeNjNlUnwENnLpVmPMtq/S1asjewc0OGb6+Jvycu8wu3ERKOSOqcvGATKWq5VgNSGxUM7Gapd2IBAQAbtHa9FQTmm37tdc7ZtwsC0pTgIf5Najvhu2x9w7KSDqizRYbFL/pDyrj7GNjsBKHtlgKaf2DDExdQ/QvkcENrLFC9FgTBAOHo2M4UwxwXCr74L1uSZaCQirRAMn08ZERK5MipfASq55ISQMcSUmcu1adGKuTIJA7ARs4v5dedLliX3I1fxvEYfl/nH2oyNQyKNfJR5MRJxNrQVEXZMG0p32bVmDFDeBR7n3oe1AGgNFNYkt1NbPyrYlQSAGAjZZr5VNNNiP9NhnLxLCwYtuGMMIG3P24PihS2OdBYRVrkE118aiEbYlxUvABtVHZa+EhOHWGJxpkyv/Um0zbUkQCIXARoYWyp81adu+Vwnh4FV3DG2MjT+LOpRdG+olIOpGNMgetG9hLVLcBLZyz0shUWOvRG2uz7WgqE+xhYAPBOweWiv/oWxRhlJb7xLCwbsuGdqgR43Fh76NXCQgrNFq4iYa0bcHwrtuJZNt0JU+m65xuZB9ttSRK8+VSRAYm0ChButlic3YjXdpD+HQhVYUZW083moev2hcXiwgapQagPZexF39mW30BFby0HshYb2gsTnTJldGUAgCaTAChWquIwy2733SvZHLyHfKC++NxUBXBGzefnBRmTMBYcZUg9GiEZl9JiVBYCUvP2tAFqF4eyAo5rI7D8V27PSGwFaWbJSDEgw1vWquvtfnvD7GNnoCNl5vNVfb1klyKiBqizQ4H7Rvg5OUDoFCrn7U4FyH6HI1oeay/Sdl286USRCoCdika9kEw8blJFw3MMZW43ypdmxuzpRJ6RB41Jh9cO3uIALCjNRAnWtj0QjbktIhUMrVR2Vv/oa9D3qN30zX2di1/HO1nWlLip9AKRc3yn8qF7avyXerbZBJY9nG7Z3yW+VMmZQOARvHtxq/tnWeBhMQtaUavA/aN8VLSovAVu6ulC0qUWobfEJUBN+FTQ7YxFoqRyEW9h2sxqvNvcv94+wnQ+BRc+/DkN4OLiDMeA3kuTb2kmWuTEqPwFoum5AoYnNdY3smn2x8W/5xb9+Ok/whUMoUy39U2zLG8SjfbL5damPRhlyZlB6BQi7fanyXQ7s+ioCondDAvtO+KWIm1xpKWttS7trvSaw0uLcxu34gLGy8/6xs23nMfnvgWyEbbGxZRKG0HKtQkG/PSeMt04elsgmHTJmUHgEb948a7x/Gcn1UAWFOVQPdohGLsZykHS8JrGTV5xQm90P61T2Q6Xid7cXN2d5n7ZKOENjo+FbZtv+ttrvPGku2TSppLC3ksIkG25LSJbCW67dj3wOjC4i6f6uBb0Iiq4+xTZJAKa8tKmEvXdp+8kn3xkwQ5hWIvNr+qG1W7du23q8OBb/ZyINt5cUf1dY+2/HvNDYK25KeH8KWYkG0gQFRCoEJh2IKFFdTNFq3WU2U9/p8Vx9jmzSBtbx/1M2w+9JImkRL53UPZSpquU5z7czqD9r+oGzHmpKVO3auqXzTsaLpoI5tlW0ZYT+V+mB5l6aa9Or2Q9tWD11EG0LruOHsfVTVH3Qf2b02SZpUQNQe68awScyiEXl9jG2yBG74Ykm273H8BAHNk590enmiCKfSIFDIzfeaJzdTu+uFgKgh6AZZat+ExKw+xjYpAoVuipukPMZZCLQkoPkxU9FvLYtTLD4CFmkw4bDyxbXvfTHE7KjAXGv3g092YctoBG5Ha4mGIBAYAc2PpUxeBWY25rohYN+J19V3pJsaHdTiVQRi3x+WNfZpJLG/0s2BgEiiq3GyLwHNixadtSiEbUnxEyjkohfLFU2ovYpA7BuoLxP7+dgbHbMvle3+OfajJPAYpVc4BQGHBDQn2lxof7VEiptAKfdu7TtQeeOrq1e+GrZvV6W673Tsfv84+9EQIPoQTVfiyNAEiEIMTXjy+u1hatK/rmhLIAgBUTujGyfTvr2JnCuT4iBgT1RvpLLLONzBCwgMT0Bz4YNa4YFqeNRjtrBWY7ZcUY7Z6CVtebuE0eSUgVW+0TnLZVMZjgVH4GNIN0xwdDE4SgK6Zx7kWBmlc+k5ZUsUN+rTX0ObC4MSEPW4EuRC+Vqfb5XtCZYUJgHruw9hmo7VEJicwOPkFmDAJQRs/rvVd5lFYItLKprq2iAFRA1L0FfaNyFhNxJCQhACS4/qQ/otsE7DXD8IVPPfxg9rsKIDAZvz7DvruurDDpf6VfTKL3P6W1O9H2Frgsv+tXDliARsOcrEHwkCEOhJQPNerkufel7OZeMTWKnJR8195fhNu28xGgFRo9ENNdc+P4tdA/F3a+t9a3/NwzIIhEFAc54JiDwMa5O1spDnt7EIh7oXoxMQtWOVMreIRF4fY+sNAXuH5cYbazAEAgET0FyXyfxvAbsQs+mFnHvUfGfb6FLQ70Cc6g3rsOpL6lblylNlOTc6gfejt0iDEIiUgOa5Uq59iNS9UN2yPrEo641yEaoT5+yONgJx6LhU+lLHLCKRKZOmI7DSDWWijgQBCDgioPltpqosCmFb0nQESjX9qDluNZ0J47WcjICokepGe9D+O2VutBrKeNutmrrWzWVbEgQg4JCA5rY7VWfvf5HGJ2Bz2vtUhEONNzkBYY5Xat1uNoREPRLG2doN9mGcpmgFAukR0NxmUYgsPc8n89iEg/3fJEH89LRrSkkKiBoiQqImMcq2lHi4HqUlGoFAogQ0p+Vy/SlR98d0O2nhUINOWkDUEBASNYlBtzcSEMWgLVA5BCBgEdYvwrAAxSAEEA57WBEQezAQEnsw3O6uJR5+dVsltUEAAk0ENI9lOv5VedZ0nmO9CCAcGrAhIBqgICQaoPQ/ZDfeGwmIsn8VXAkBCHQhoDnsQeXtr85IlxFAOJzgh4A4AWdPSLxVsexEUU4dJ8CLk8fZcAYCgxHQ/MULlf3plrrUXo60Pzs3EUFqIICAaIDSdEg341LHTdFnyqR2BDa6+d60K0opCEDAJQHNWbnqe3JZZwJ1lfLxUfPWKgFfL3Yx2l+ivJjMQQU2oJSvdfhWuTw4zcdmAu+bD3MUAhAYmoDmq0JtrIZuJ5L6N/Lj1uZ4ZZi17FQiEC1BHRar1L1FJPLDc3zeEbC/i0ZAMBggMCEBzVMzNW9LGbYlvSZQ6NCj5irbkjoSQEB0BHZYvBISb3V8eXgu4c+2Znitm9K2JAhAYEICmqOWav7ThCb42PRKRn3UHLXx0bhQbEJAOOop3aSZqrJftlwqp672f9WNuRYHEgQg4AEBzU9PMiP3wJQpTbAHmpWyCYdSW9KFBBAQFwI8vFw3qomHpbKJiUw5tcRvPqTW4/jrPYHqASfV34Yo1UH8RcUAoxQBMQDUukrdtEvt2/JGrpxCMoX/BnWfQlfjY2gENB89yOb70Oy+wN5C11q0gWjoBRBPXYqAOEXH0TnduHNVVS9vOKrVy2re62b94KVlGAUBCNjPXFsUwuajWNNWjq2VTThsYnXSF78QECP2hG7emZq7U7aoRKYcUyp0w97E5BC+QCA2AtXDjImI2FIph1imGLlXERAjA6+b04280L5FJfL6WMDbrWxn6SLgDsT0dAho7nmQt7EsZazly2c9vNiWNDIBBMTIwA+b082c6Vi9vDE7PB/IZ5YuAukozISAEdC8E/JShj2w1NGG0vwhTUMAATEN98ZWdVMvdSK0ly5ZumjsTQ5CwF8Cmmvmsi60pYxCNlu0YaUtCQIQaCJgUQnl35T/VvY5mX1Zkw8cgwAE/Cage/fB58mlsu2btjYXZn7TxDoIeEhAN85C+Yuyj+nOQ2SYBAEItCSgSeWrjxOLbLI5b9HSDYpBAAKnCOhmsqjEnfI3ZR/S0yl7OQcBCPhPQBPJXPlvHyYU2WBixua4mf/ksBACgRLQDWY3/SflqW58a5ebPNDxg9kQ2Cege9m+tKdKNpf8pjzft4l9CEBgBAK68RbKX5THTIQWR+hbmoDAWAQ0eTyNOYGoLZuzmEfG6mDagcApAroZZ8pL5SflIdOnU3ZwDgIQCI+AJgybPywaMGR6UuU2RxG9DG+IYHEqBHSD1u9LfNW+y/RNlXHzpzKQ8DMpArq3LZrpOtkcdKecJQUTZyEQAwG7casb2IWYmMfABB8gAIFmAporPilfmhANzXg5CoFwCWhWuERMPITrOZZDAAJtCGiOsKWMPg8biIY2gCkDgRgIdBQT/MlmDJ2ODxBoQUBzw1y5TUI0tOBJEQhETUAzRR2ZeGqYNf7WMd57iHoE4BwEXhLQPW/vLTSlJx3knYaXuPgEAQgYAU0OFsJcKn9RNvGQQwYCEEiPwN4cYHOBzQk8SKQ3DE56/P+LumonAbOgSwAAAABJRU5ErkJggg==;fontColor=#FFFFFF;" vertex="1" parent="1">
                    <mxGeometry x="1580" y="398.08000000000004" width="79" height="59.84" as="geometry"/>
                </mxCell>
                <mxCell id="15" value="Discord Webhook" style="rounded=0;whiteSpace=wrap;html=1;align=center;verticalAlign=top;arcSize=28;fontFamily=Helvetica;fontSize=12;fontColor=default;fillColor=#333333;labelPosition=center;verticalLabelPosition=bottom;" vertex="1" parent="1">
                    <mxGeometry x="1580" y="650" width="96" height="96" as="geometry"/>
                </mxCell>
                <mxCell id="16" value="" style="shape=image;verticalLabelPosition=bottom;labelBackgroundColor=none;verticalAlign=top;aspect=fixed;imageAspect=0;image=data:image/png,iVBORw0KGgoAAAANSUhEUgAAAhAAAAGQCAYAAAD/WFnMAAAAAXNSR0IArs4c6QAAAERlWElmTU0AKgAAAAgAAYdpAAQAAAABAAAAGgAAAAAAA6ABAAMAAAABAAEAAKACAAQAAAABAAACEKADAAQAAAABAAABkAAAAABLO3lGAAA5f0lEQVR4Ae2d/3nbNteG617f/9U7QekJqkxQeoKqE0SeIM4EtidoMkGUCaJOYHaCqBOEnaB6J+j3HL2kK8uURFIgiR83rgshRYLAOTdA6OEBrVx9R4JApAT++eefTK5ZzpV/Us6U58rF1dXVjbYkCFxMQONsqUrulUvlP6ptqTFWaJ8EgWgJXEXrGY4lRUCTuAkDy5nyz9X+TNtj6VYT/OrYSY5DoC0Bjb1vKpsdKb/R8VL5T+VCeaNxt9WWBIHgCSAggu/C9ByoIgu5PLeogokG2++a7AnxuutFlIfAPgGNxQd9tuhDl1SqsAkLREUXapT1jgACwrsuwaB9ApqgZ/qcK5tQaBNZULHW6VEi4qF1aQpCYI9ANTYt+mBj9NJUqoJnUaFxWVxaIddDYGgCCIihCVN/JwKalE0o5MoWXbBtpjxU2qria03WtiVBoBOBntGHLm2YoCiUd5EKjdNS+yQIeEMAAeFNV6RpiCbhXJ5brgXDTPtjpkdNzA9jNkhb4RPQuM3khUUfxkwmdAvlP5TtXQrbJ0FgMgIIiMnQp9nwnmCw5YjcAwo2Kb/h6c6DngjIBI3jTzJ36YHJhWwwQWF/WWT7JAiMRgABMRrqNBvyUDA0dcRKk+9t0wmOQeCQwETRh0Mzjn0udAJBcYwOx50SQEA4xUllmlznopArW4RhoRxKuiYKEUpXTWunR9GHNiDWKlQLik2bCygDgbYEEBBtSVGukYAm05lOmFColySyxoL+HyQK4X8fTW6h59GHc3y2KrBWrgVFee4CzkPgFAEExCk6nGskUEUZTDT8ojxvLBTmQaIQYfbbaFZr7H9RYzb2Y0gbOVEo/67om21JEOhEAAHRCVeahQ+iDDZ5ziIlQRQi0o514Zbug1z1PLmoy8M6trKpUP7dtizniQLpLAEExFlEaRbQZJnJcxMLFmXIlVNJRCFS6emOfuqeMPGQd7ws1OIbGW5iYi0xYfskCLwigIB4hSTdA5og5/L+rbIJh0w5xUQUIsVeP+NzdW98PVMs1tOlHFsr/yExYVsSBHYEEBCJDwRNjCYW7AXIlEXD4SggCnFIJPHPuk8+CcEycQzm/lbZRIS9N2FbUsIEEBAJdn4lGmxpwkTDLEEE51wmCnGOUELndb9kcvdbQi53cXUnJnSBLXVsu1xI2fAJICDC78NWHiAaWmHaL0QUYp9GwvtEH1p3PmKiNao4CiIg4ujHRi8QDY1Y2h4kCtGWVMTliD707tydmFBUYtW7Bi70ngACwvsu6magJry5rkj9Rchu0I6XJgpxnE0SZ4g+XNzNtqxRiwnbkiIigICIoDOrp6SlXDHhkCmT3BAgCuGGY5C1EH1w3m0mJlbKnxWZ2DivnQpHJ4CAGB25mwY1uc1U00L5nfLcTa3UckBgq88WhbAtKTECusce5PJ9Ym6P5W6phj4rm0i3fVKABBAQgXWaJjUTDfYXFMvATA/V3EdNcA+hGo/d/QhUAt3+8mLWrwau6kCgUFkTE/wlRwdoPhRFQPjQC2ds0GSWqYhFGkw82D5pPAJbCYj/jNccLflAgOjDJL1gkb618mfdc8UkFtBoJwIIiE64xitcPQGZYGCJYjzsx1q61YS2OnYylOMaU3PZOhvY3o1YbQduY/DqxcqiD9ngDdHAMQKlTnxUtqiE7ZM8JICA8KxTqkm+jjYMPdl75r235pSaxK6nsE7jIVO7luuU1zvV9ueDzzZm5gfHfPhoomJzYEipz3/tHbPPlndJzItqd9SNmC/V4KdRG6WxUwTWOvlZ48G2JI8IICA86AxNWDOZsVAm2uBBfxwx4cbVF9qBKMir9n7UNqv259ramCD9S2Cj3W318Y9qW2pr+TtXfWN1qX++amN9QPKLQClzPivz4qUn/YKAmLAjqi+Se5mwUJ5NaApNnydQ6Evq5lyxSgzal4/1p21/qLbaJPM/OZqvU6VSDVveKv9ZbTe2Vf/Z9mRS/+Uq8HSyECd9ILCWER9dCkcfnArNBgTEBD2mSWqpZt8q58qkcAhca8Iq1X9zmTxTzpVrgWCf7TjJbwJbmbdRLpX/qra2v3t3Q337RfsLZVIYBEqZae9KWFTC+pY0IgEExEiwNTFlamqpbMIhUyZBAAJ+EbAvoJlfJmFNSwLWd2vlRxP5La+h2IUEEBAXAjx3uYRDrjImGpbKJAhAAAIQGJZAoeptecMEBWlAAgiIgeBKOCxVNcsUA/GlWghAAAJnCJQ6z/LGGUiXnEZAXELv4FqJBgt/3imzTHHAho8QgAAEJiKwVbsrZYtKlNqSHBFAQDgAWb3f8E5VLZVNRJAgAAEIQMA/AiuZ9FlCovDPtPAsQkBc2GcSD7+pCos6kCAAAQhAIAwChcx8LyGxCcNcP61EQFzQLxIPJhxMQJAgAAEIQCAsAvanu2/CMtkva7/3y5xwrKmWLe7DsRhLIQABCEBgj8Bc8/jD3md2OxIgAtERWF1cA+9J+3n9mS0EIAABCARJ4A1LGf36jQhED27V0kXe41IugQAEIAABvwh88succKxBQHTsK5YuOgKjOAQgAAG/CbCU0bN/WMLoCI6li47AKA4BCEAgDAIsZXTsJyIQHYCxdNEBFkUhAAEIhEWApYyO/YWAaAmMpYuWoCgGAQhAIEwCLGV07DeWMFoCY+miJSiKQQACEAibAEsZLfuPCEQLUBIPCxXLWxSlCAQgAAEIhE2ApYyW/YeAOANK4mGmIgyoM5w4DQEIQCASAixltOxIBMR5UPZT1SYiSBCAAAQgkAaBd9V7b2l429NL3oE4AU4DKNfppxNFOAUBCEAAAnESKPQLlTdxuubGKyIQRziydHEEDIchAAEIpEEg1/eA/YeJpCMEEBBHwOiwDZzs+GnOQAACEIBA5ATuq4fJyN3s5x5LGA3cNGDmOvy14RSHIAABCEAgLQJrLWX8mpbL7bwlAtHMyV6cJEEAAhCAAAQWeqjMwfCaAALigIkGii1d5AeH+QgBCEAAAukS+KTvhlm67jd7joDY41INkPu9Q+xCAAIQgAAEMiGwh0vSHgHegdiDIQFhPxi13DvELgQgAAEIQKAmwM9c1yS0RUBUMCQecu3ymw8VDzYQgAAEIPCKAL8NsYeEJYx/YVj0gQQBCEAAAhA4RsB+G2J57GRqxxEQ6nENiAdtMmUSBCAAAQhA4BSB3/SdwQuVIpS8gNBAyMTh3anRwjkIQAACEIBARcDEA3/qLwjJC4hqIKAmqzuDDQQgAAEInCWw1MNnfrZU5AWSfomyGgC8OBn5IMc9CEAAAgMQ2OgXKt8MUG8wVaYegeDFyWCGKoZCAAIQ8IrAXA+hSf82RLICour4zKvhiDEQgAAEIBASgXt9lyS7BJ7kEkbV4d80SpPt+JDuUGyFAAQg4DGBlZYybj22bzDTUo1A2Bu0iIfBhhUVQwACEEiGgL1QOU/G2z1Hk4tAqKNz+c+Lk3uDgF0IQAACELiIQJK/UJliBOL+omHCxRCAAAQgAIGXBJL8hcqkIhCKPizV5/zlxcuBzycIQAACELicQKkq7D/b2l5eVRg1JBOBqF6cJPoQxrjESghAAAKhEchk8F1oRl9ibzICourY7BJYXAsBCEAAAhA4QeBeD6vZifNRnUpCQFQdyv93EdXQxRkIQAACXhJI5v/JSEJAaIjZ0gV/tunlvYZREIAABKIisNBDax6VR0ecif4lSnWk/X3u1yP+cxgCEIAABCDgmkASf9aZQgQimXCS6zuA+iAAAQhAoBeBJP6sM+oIRBVGeurV/VwEAQhAAAIQ6E+g1J90Xve/3P8rY49A8JsP/o9BLIQABCAQI4FMD7EPMTpW+xStgFDHLeVkVjvKFgIQgAAEIDAygXf6Lor2Bf4oBUTVYbz7MPKdQnMQgAAEIPCCgImHaH/AMEoBoQ67U45W9b0YnnyAAAQgAAGfCdzpoTbz2cC+tkUnIKrow7u+QLgOAhCAAAQg4JhAlFGI6ASEOt06iuiD49FPdRCAAAQg0JvAUg+3ee+rPb0wqj/jrMJE3zxljVkQgAAEIJAugeh+XCq2CESUYaJ07zc8hwAEIBANAftxqTwab+RINBEIog8xDUt8gQAEIBAlgaiiEDFFIIg+RHm/4RQEIACBaAhYFGIRizdRRCCqsNBTLJ2CHxCAAAQgEC2BaH7iOpYIBNGHaO81HIMABCAQFQH7ietlDB4FH4Eg+hDDMMQHCEAAAkkRiCIKEUMEguhDUvcdzkIAAhAInkAUUYigIxBEH4K/iXAAAhCAQKoEgo9ChB6BIPqQ6q2H3xCAAATCJhB8FCLYCATRh7DvHKyHAAQgAIHvgo5ChByBIPrA3QcBCEAAAiETCDoKEWQEguhDyPcLtkMAAhCAwB6BYKMQoUYgiD7sjT52IQABCEAgWALBRiGCi0AQfQj2JsFwCEAAAhBoJhBkFCLECATRh+YByFEIQAACEAiTQJBRiKAiEEQfwrwzsBoCEIAABM4SCC4KEVoEgujD2TFIAQhAAAIQCJBAcFGIYCIQRB8CvB0wGQIQgAAEuhAIKgoRUgTibZdeoCwEIAABCEAgMAJBRSGCiEAo+pBpEHwLbCBgLgQgAAEIQKArgWCiEKFEIHj3oesQpDwEIAABCIRIwKIQeQiGex+BIPoQwjDCRghAAAIQcEiguLq6unFY3yBVhRCBeDeI51QKAQhAAAIQ8JNAHkIUwmsBIYAz9e3Sz/7FKghAAAIQgMBgBLx/ePZaQKhb7pRNRJAgAAEIQAACKRFYVEv43vrs9TsQgve3yCEgvB0+GAYBCEAAAgMSWOldiNsB67+oam8jEBIPS3mGeLioe7kYAhCAAAQCJrD0OQrhrYBQh/OnmwGPekyHAAQgAAEnBJZOahmgEi+XMKS4FvL1ywD+UiUEIAABCEAgJAJbGXutpQzbepV8jUB4//apV72IMRCAAAQgECsBW8q3h2rvkncRCEUf5qL01TtSGAQBCEAAAhCYhoCXP2/tYwSC6MM0A5RWIQABCEDATwL289beRSG8ikAIkIVq/vaz/7AKAhCAAAQgMBkB737e2rcIxN1kXUPDEIAABCAAAX8J2M9bZz6Z51sEwqIPFoUgQQACEIAABCDwkoBXPyzlTQRCymopToiHl4OFTxCAAAQgAIGagP2wlDffk94ICNHh5cl6iLCFAAQgAAEINBNYNh8e/6gXSxhSVHO5/nV892kRAhCAAAQgEBQBb/6k05cIBNGHoMYvxkIAAhCAwEQEvPmTzskjENV6jr08SYIABCAAAQhA4DwBL/6k04cIxPI8K0pAAAIQgAAEIFAR8OJPOn0QECxfcE9AAAIQgAAEuhGY/Ltz0iUMLV8sxOtLN2aUhgAEIAABCCRPYKv/ofM/U1KYOgLxdkrnaRsCEIAABCAQKIGZHsKXU9o+WQRCjmdy/NuUztM2BCAAAQhAIGACk75MOWUEYhlwp2E6BCAAAQhAYGoCk75MOaWAYPli6qFH+xCAAAQgEDqByV6mnGQJg5cnQx+v2A8BCEAAAp4QmOxlyqkiEEQfPBl5mAEBCEAAAkETmOxlytEjEIo+2P8k9nfQ3YXxEIAABCAAAX8ITPIy5RQRiKU/zLEEAhCAAAQgEDyBSV6mnEJATPbCR/BDBAcgAAEIQAACzQSWzYeHOzrqEoaWL/hvu4frS2qGAAQgAIF0CYz+33yPHYEg+pDu4MZzCEAAAhAYjsDo/8332ALC/u8LEgQgAAEIQAAC7gn84r7K4zWOJiC0fLGUGfYXGCQIQAACEIAABNwTWFZ/6ei+5oYaRxMQantUZdTgK4cgAAEIQAACsRMYLdI/ykuUUkSZeoz/OCv2YYt/EIAABCAwNYGN/pvvN2MYMVYEYjRFNAY02oAABCAAAQh4SmBePbQPbt5YAoKfrh68K2kAAhCAAAQgsCMwykP74EsYUkJzufOVToUABCAAAQhAYBQCo/wmxBgRCKIPo4wXGoEABCAAAQjsCNhvQtjD+6BpDAExSihlUEpUDgEIQAACEAiLwOAP74MKiEoBZWExx1oIQAACEIBA8AQGf3gfVEAIPz9dHfwYxAEIQAACEAiQgC1j5EPaPbSAGFwBDQmHuiEAAQhAAAIBExh0GWMwASHlY+JhFjB4TIcABCAAAQiETGDQh/jBBISI89PVIQ87bIcABCAAgdAJzKqH+UH8GFJADKp8BqFBpRCAAAQgAIG4CAz2MD+IgGD5Iq7RhzcQgAAEIBAsgcEe5gcREMI8mOIJtgsxHAIQgAAEIDA+gcGWMYYSEIMpnvHZ0yIEIAABCEAgaAKDPNQ7FxAsXwQ9yDAeAhCAAATiIzDIQ71zASHugyid+PoTjyAAAQhAAAKjEBhkGWMIATGI0hkFMY1AAAIQgAAE4iTws2u3nAoILV/MZeDMtZHUBwEIQAACEIDARQScP9w7FRBybdCfzbwIHRdDAAIQgAAE0iXg/L/4di0gnCucdPsazyEAAQhAAAJOCTh9yHcmIKrli8ypq1QGAQhAAAIQgIArArmriqweZwJCdeVWIQkCEIAABCAAAS8JzPWwn7myzKWAcBoaceUg9UAAAhCAAAQg8EzA2asGTgREpWjmz+axAwEIQAACEICAjwSc/VaTEwEhQrmPlLAJAhCAAAQgAIEXBHI99M9eHOn5wZWAcKZoevrBZRCAAAQgAAEItCPgZBnDlYBwYkw7vykFAQhAAAIQgMAFBJz8KuXFAkKhEMTDBb3IpRCAAAQgAIGRCTj53v4/B0Y7UTIO7KCKOAkUcqtU/qva2v6plOmk5R+rba4tCQJTECjVqOU/lC0Vu39P/5NXp21ezapcHWIDAWcE7D/Xml9dXW0uqdGFgHCiZC5xgmujIrCWNzbhFpcO7pqK3Sjaz5VtUrbtTJkEAdcENqqwUK7H77ZHA3b9c6pedst1oB67NpZJEHBBYKFKbMz2Tle9r9SFGtyZNt8uqYNrkydgk+xa+XcJBtsOnjRuF2rEXvy17WzwBmkgZgIbOfdZea3xWw7taDXn2rh9qzwfuj3qj5rARmP2zSUeXiog7tT4b5cYwLXJEijl+aOyTbzbqShoQl6qbZuMc2USBNoQsPG6Vv6osbtpc8EQZTR256r3nfJCeTZEG9QZPYH/XDL/XiogvgivDV4SBNoSKFTwUYPWtt4kTca5jDEhsVQmQaCJwFYHPyp/uGTSbar4kmMauyYe7pRNTNg+CQJtCdxqLK/aFj4sd6mA+FsVMmAPqfK5icBGB9/7JhwODa2ExL2O54fn+Jwsga089044HPYGQuKQCJ9bEFhpTr5tUa6xSG8BUU20T421chAC/xKwyfdRg/TDv4f836vG9ydZmvlvLRYOSGCtuk34lgO24bRqjd1MFf6mvHBaMZXFSKDU2L7u69j3fS/UdfkF13JpGgRs8r3WAA1KPFjXyOZCG3vBKDjbZTPpcgJbVfGrxoHl8vLqxqvB7DW71eKNcjley7QUIIFMgnPe1+5LBMQvfRvluugJ2OR7a5OYsu0Hmcx25fcynok4yB7sbfRaV16r720bbJL9hYw3ERy0H8F2QDiG531N7SUgpFhmanDet1Gui5rARt7daPJaxeIlE3EsPdnKD1uuCFr47nspX0wEWzTiVnm7f459CFQEfu5LopeAUGN53wa5LmoCa3l3ownLRERUaW8ifozKMZypCdiX6xv184f6QExb+bWSPxZJMz9JENgnkO9/6LLfV0D0VixdjKNsUARWmqSieXI7Rl4+PuicPc2R4iFggvdGfWvbaFPl37UcjNrPaDtwOMd2P2vdp/q+AiLv0xjXREvgVpNTMl+q8nWlnrS1ZZ7mwh/SSYiHups0dm3MWiQCEVFDYWsEFn0wdBYQvP/QB3PU15h4WEXtYYNz8nn3xaNTNiGTwiSw68PqSzVMD3pYXfmLiOjBLuJLeq0qdBYQAphHDBHXuhG41WS06nZJPKXlOyIi3O5MUjzU3YWIqEmwrQjkfUj0ERC9lEof47jGawL2zsPKawtHMK4SEfaWOykcAqVMvam+RMOx2rGllf9EIhxzDbU6rS7kXW3vIyA6N9LVKMp7T8DEQzLvPJzrDbEoVAYe50D5cd6WnKJ/2bct6j0RYVxIaRPIu7rfSUDw/kNXvFGWt9Dv+yg9u8ApTcQrXf54QRVcOg4BEw82hkkVAUQEQ6Ei0Hl1oZOAUCM5qJMmwNPbie7XRPyg08WJIpyalsCj+oj+aegDceHBoIFLYofmXf3tKiA6K5SuBlHeawK3mmhKry2c3jh7H8KEFskvAoXG7oNfJvlljfisZJFlUpoEOv8eRFcBkafJFa9F4IMmmDUkThMQIxMPvFR5GtPYZ+mT9sRtebJsX5ySkRHIu/jTVUDMu1RO2WgIlPKE9f2W3SkRUajoh5bFKTY8gdtK2A3fUuAtVJx4ITjwfrzA/E6rDK0FRJ8/8bjACS71iwATcPf+MMFVdr+MKxwTWOtLce24zqirE69CDiKAo+7lo851ChK0FhBqLj/aJCdiJmATcBGzg0P4JmZb1ctfqwwBt32d9EF7VoclEcCHRNL4nClYkLV1tYuA6BTaaGsA5bwmwAR8QfdUT77FBVVw6WUEPqoPysuqSPPqSgCzbJlm9+dt3e4iIDqFNtoaQDmvCTABX949rCdfzrBPDSZ+P/S5kGv+R0AiYqW94n+f+DchAj+19bWVgFBIw8TDrG2llIuCABOwg26snoBXDqqiim4E3ldP0d2uovQhAaIQh0Ti/5y3dbGVgFBlJiBIaRGw6IOJCNLlBJiEL2fYpYayenrucg1lGwiIY6HDlknpEGj9fd9WQLQOaaTDOGpPiT447F5NwqWqWzmskqpOE/h4+jRnOxKAZ0dgoRdv+1eXbQVEHjoQ7O9EwP6zLKIPnZCdLcwkfBaRkwI2bldOaqKSHQHNBWvtlOBIisC8jbdtBUSryto0SJkgCPBl57ibNAlvVGXhuFqqe00A8fuaiYsjLMO5oBhOHa3+6vKsgGgbygiHC5aeIWD/Z0B5pgyn+xH43O8yrupAAPHbAVaHohaF2HYoT9GwCbQKGpwVEGLQqqKwWWH9HgG+5PZguNyVMFupPiZhl1Bf1rVB/L4E4uqTuNq4Xbuqj3q8J2A/KDU7Z2UbAcELlOcoxnN+W33JxeORf54wCQ/XJ0QfhmNrNf8+bPXU7hmB+Tl72giIs5Wca4TzwRDgy234rmISHo4x43c4tt/p4cL4bgdsgqr9IpCfMwcBcY5QWuf5chu4v5mEBwNs7+7w5TYY3ueKEWnPKKLfObv6cFJA8AJl9APk0MHi8ACfByEAZ/dYEb/umTbVCOcmKnEem59z66SA0MVnKzjXAOeDIcAT3HhdxSTsnnXhvkpqbCAA5wYokR46+yLlOQFxNoQRKbgU3fojRacn8rmYqN1Ym7WXfzexOueTX9UyEax96pRhbTkZRDgnIE5ePKzd1D4ygWLk9pJtTpNwKectk9wQKNxUQy0tCcC7JagIip3UAAiICHrYhQv6Uitc1EMdrQnwFNca1dmCf54tQQGXBIhWuqTpd10nVyGOCgi9QHlSefjtM9Z1JMCXWUdgDorzpecAYlVF4a4qampBoGxRhiJxEDipA44KCPl+8sI42OBFRQABMf5QKMZvMtoWGb8jdi3vm4wIe/qmTuqAUwIim952LBiJwF8jtUMz/xIo/91l7wIC9gLl9oLrubQfgaLfZVwVGoFTqxGnBESr/40rNBjY20igaDzKwcEIVC9SDlZ/QhUTfZimsxFt03CfotXsWKOnBMTRi45VxnEIQKATgbJTaQo3EYBhE5Xhj/EOz/CMfWnh6DIGAsKXLprQDv4CYzL45WQtx9Mwy2/x9CWe+Eng6GpEo4DgJ6z97EWsggAEXhEglP4KySgHWDoaBbMXjWTHrGgUECp89IJjFXE8WAJMwNN1HZPw5exheDnDPjUwb/ShFuY12TGzERDHyKRznAl4ur7+73RN0zIEIACBdgSOrUocExBH1zzaNUcpCEAAAhCAAAQiITBr8uOYgMiaCnMMAhCAAAQgAIHkCMybPEZANFHhGAQgAAEIQAACNYHG/xPjlYA49atTdU1sIQABCEAAAhBIhkDW5OkrAaFCjQWbLuYYBCAAAQhAAALRE2i9hNFYMHo8OAgBCEAAAhCAQCMBrU5khyeaIhA/HhbiMwQgMAgB/tppEKxUCgEIDEAgO6yzSUC8KnR4EZ+jIpBH5Q3OpEag8c/LUoMwgb/5BG3S5LQEXq1ONAmIV4WmtZnWIRAtAb78Lu9a5qvLGVIDBNoQeDVfNQmIV4Xa1EyZcAk0rW2F601QlvPlF1R3YewegcY/69s7z258BF4tub4QEMd+rjI+Dnh0QCA7+MzHgQnoXkOou2HMF5kbjl1rYfx2JRZ++Vd9/kJAhO8fHvQkkPW8jsv6EyD60J/d/pWvJrX9k+wPRoDxOxhabyt+1eeHAiL31nQMG5JANmTl1N1I4NXN2FiKg+cI5OcKcN4tgSp6hnBzizWI2g4jp4cC4ocgvMBI1wRerW25boD6XhEg9P4KSb8DmtQQY/3Q9b0K3n3JhX/di74/FBAvTobvKx60JEC/twTlsBjM3cHM3FVFTS0I5C3KUCROArN9tw4FxIuT+wXZj5rATE9xWdQe+uccAsJdnxBBc8eyTU1Ez9pQirPMi3nrUEC8OBmn/3h1hEB+5DiHHROQWIO1W6bwdMvzXG3wPkco3vMvXnM4FBDxuo1n5wjwFHeOkLvzubuqqEkE5ocvd0FlGALV+yZEqofBG0KtL4IMzwKCp6IQ+m5QGxeD1k7l+wR+2f/AvhMCuZNaqOQcATifIxT3+Rfi8VlAxO0z3rUgYO9BvFCXLa6hSEcCYpzpEjh35NaiOKKsBSQHRd46qIMqwiXwYu7aFxB5uD5huSMCTA6OQJ6oJj9xjlP9CSz6X8qVbQggfttQSqvMvoBIy3O8bSLAJNxExe0xnpTd8qxrswga47emMcwWvsNwDapW3Wd5bfC+gPipPsg2WQKZBsc8We8Hdrx6gmMSHo4z4mw4tlYzEcph+QZX+76AmAVnPQYPQeDdEJVS544A4mHYgbCQSGMeG4BxJX7nA1RNleEReB4HCIjwOm9oi5mEhyOMOBuOrdVs4mExbBPJ1s7YTbbrXzlu99ku7QuIZ1VRn2SbJAEm4QG6XU9w9sWWDVA1Vb4kwBfdSx4Xf6qiOsuLK6KCWAj8UDuyLyDqY2whcA8C5wT4YnOOtLHCub7w8sYzHOxLwMSvPViQIGAE5jWGnYDQDfd8oD7BNmkC9jLlMmkCDp2vvtByh1VS1WkCCODTfLqehWdXYomUryMQqMtEOryDm0waHWCdKQrLM4Acn86JQrghWj1IZG5qo5ZICDwHHGoBEYlfuOGQAFEIBzCJPjiA2K8KRFs/bodXwfGQCJ+fAw61gMhhAoEGAvf6AnweLA3nOXSeABPweUZDlCAKcSFV3ft3qiK7sBouj5hALSAidhHXLiCQ6VqbREg9CGgCXuiyvMelXOKGwCc31aRXS/XggPhNr+tbeazxkVtBBEQrXEkXeqfBkiVNoIfz1QT8W49LucQdAVuGe3BXXVI1mXgg+phUl3d3thYQP3e/lCsSIWCTCE9y3TvbIjdZ98u4wjEBBHBHoNXTpY1fEgROEqgFxMlCnEyegK0nM6G0HAZiNVdRwr8teQ1cbKb6EcAtIWvswqslq8SL5eY/AiLxUdDB/fvqi7HDJekVrSbgL+l57rXHJoAfvLbQH+NM+Gb+mIMlPhOoBUTus5HY5gWB3ZNJ9QXphUGeGmHvPWSe2payWfcauxYZIh0hID4Lnbo7cprDEHhFoBYQr05wAAINBGwC5sXABjB2SBPwUhvLJD8JPKmPZn6aNq1V4pLJApZ6pu2GkFr/yYxFQITUZX7YutRkw1PKQV+IiYkrJuADLp59NPHw5JlNk5tTiSpbdkNcTd4bwRiwGyvfV8ozGKsx1AsCv2ncLL2wxAMjqnuILyYP+qKFCfafbSH0XoIyHiaASRDoRMAiEFmnKygMgf8RMBGR/KQjBqbEeXoL666wKBoiQn1WcViE1X1Y6wsBljB86Ynw7LAvzidNQMmKCPm+YyAOyTIIb9g+W2wi4uH5U4I78t9E1DJB13H5cgK5VYGAuBxkyjUkKyIQD1EM+3v1Y5IvBSMeohi/kzvBEsbkXRC8AbWIWATvSUsHEA8tQYVR7K76Mg3DWgdWIh4cQKSKHQEEBAPBBQETEV80MS1dVOZzHfJxLvu+KtuWFAeB3TsR6lsbx9Em80+ZZYtoe3h8x1jCGJ95zC1+qiaoKH2Ubws59qScRelg2k4t5f6T+jiLEUPll43dZYz+4dP4BDSm5giI8bnH3qI9zX2NbSKWPw/qOP7aIu7Ru4suqa9NKEaT5E8uZ4iaRdOj3jgyQ0B40xdRGRLNRGxCSNme3O6j6iGcOUZgphO2HGd/pmz7QSfzQw7Y+A3el6A7IlLjTUD8FKlvuDUtgXoitsk4m9aUfq3L7jtdaU9ueb8auCpgAru+1xgIsu/NbmUbu+YHCQKDEDABYRM9CQJDEVioYlvSeBiqAdf17k2+9vTG/eEacDj1ZTL1SePhk7Lte59kZ/2ipEUd5t4bjIFBE2AJI+juC8Z4+xK+1+T2TXnpq9WyzZYrvsg+Jl9fO2kau5ZqdieCNT68FJRml/KD7PymvFQmQWBoArxEOTRh6n9BINOnT5rovinby5ZeTMayw8K9n2SbTb4LZRIEDgnsRLAOftNYsfcjssMCU3w2O5Qf1LaN3XtlL+4p2UGKn8DsSoPvSX7m8fuKhx4S2MqmtfLHq6urzZj2adzbRLtQfqc8H7Nt2oqGwFqefNbYte2oSePXxu4vystRG6YxCPxL4BEB8S8M9qYlUKr5ekLeDGGKJt1M9ebKNvHaBEyCgAsCW1ViY/d35UKCwj47T3uiwcbuzHkDVAiBbgR2AsJCX1m36ygNgUEJ2ARcKP9ZbUtNyqX2OyVNuLkuyJR/Vp5XWRsSBAYlUKj2jfIfyjZ2bb9T0ti18Zop29bGb65MgoBPBHYC4h+fLMIWCJwgYBPxtjpvk/N++kkfZtUBm3Tr/f0y7ENgKgKlGrZsaaP8393e//75QRsbs5ayKts+CQI+E0BA+Nw72AYBCEAAAhDwlMAjf8bpac9gFgQgAAEIQMBjAj8jIDzuHUyDAAQgAAEI+EoAAeFrz2AXBCAAAQhAwGMCCAiPOwfTIAABCEAAAr4SQED42jPYBQEIQAACEPCYAALC487BNAhAAAIQgICvBBAQvvYMdkEAAhCAAAQ8JoCA8LhzMA0CEIAABCDgKwEEhK89g10QgAAEIAABjwkgIDzuHEyDAAQgAAEI+EoAAeFrz2AXBCAAAQhAwGMCCAiPOwfTIAABCEAAAr4SQED42jPYBQEIQAACEPCYAALC487BNAhAAAIQgICvBBAQvvYMdkEAAhCAAAQ8JoCA8LhzMA0CEIAABCDgKwEEhK89g10QgAAEIAABjwkgIDzuHEyDAAQgAAEI+EoAAeFrz2AXBCAAAQhAwGMCCAiPOwfTIAABCEAAAr4SQED42jPYBQEIQAACEPCYAALC487BNAhAAAIQgICvBBAQvvYMdkEAAhCAAAQ8JoCA8LhzMA0CEIAABCDgKwEEhK89g10QgAAEIAABjwkgIDzuHEyDAAQgAAEI+EoAAeFrz2AXBCAAAQhAwF8CGwSEv52DZRCAAAQgAAFfCfzXBMTGV+uwCwIQgAAEIAABPwmYgNj6aRpWQQACEIAABCDgKwGWMHztGeyCAAQgAAEIeEwAAeFx52AaBCAAAQhAwFcCCAhfewa7IAABCEAAAh4TQEB43DmYBgEIQAACEPCUwO7POHmJ0tPewSwIQAACEICApwS2FoH401PjMAsCEIAABCAAAU8JsIThacdgFgQgAAEIQMBnAggIn3sH2yAAAQhAAAKeEkBAeNoxmAUBCEAAAhDwmEBpAqL02EBMgwAEIAABCEDAMwJXV1cICM/6BHMgAAEIQAACQRBgCSOIbsJICEAAAhCAgF8EEBB+9QfWQAACEIAABHwnsPv9KBMQ/JCU712FfRCAAAQgAAF/CGzMlO/1IsRuxx+7sAQCEIAABCAAAd8JsIThew9hHwQgAAEIQMBDAggIDzsFkyAAAQhAAAIeEyjNtlpA7D7YARIEIAABCEAAAhA4QeAvO4eAOEGIUxCAAAQgAAEINBOoBUTzWY5CAAIQgAAEIACBBgK1gOBPORvgJHSolK+3yoUyCQIQgMAxAiudeK/Md8YxQmkcL8zNWkD8mYbPeNlAYK1jb/TnvCvlG9tXXimTIAABCBgBEwuPyteaI26VP2jf5opSmZQwgVpAJIwgadffazL4Vfn5aUL7G2WLRlwr20TxfC5pUjgPgfQIlHLZog3XmhMelO3zLml/ox172Ch2B/gnSQJX5vU///xzp81vSRJI02kTBTfVJHCSgMbGTAWWyu+UM2USBCAQN4FC7n3W/LBq46bmCPvusO8QUiIENDZ22qEWELn8fkrE99TdLATgRdShLRBNFAuVNSGRt72GchCAQDAEVrL0o74bNl0truaGT7rOHjhIkROoBQRLGJF39IF7j+r4G+XtwfFWH3Xd2q5X4WvllXKvenQdCQIQ8INAKTMelf+je/tWubN4MDd03VobW9Lodb3VQQqPQC0g+CIIr++6WGz9e6Ob/KHLRcfKqp5S+VbnTUjYtlQmQQAC4RAoZKpFIq+VH5Qv/g5QHTYvmIgwQUKKl0BRu3ZV7ygE9U+9zzYqAmt5c+tigjhFRcMn1/m3yktlEgQg4B8BEwkrZVumKLUdLFXzgS1pZIM1QsVTESg0fm6scQTEVF0wTrt15GEzTnO7F3JnamupbGJirkyCAASmJbBW85816dt2tCQRsVRjJiJIcRGwpexfzaV9AbHQZ+vsmZ0gRUVgJW/eq9O3Y3qlCWSu9uylSxtbjKsx4dNW6gRKAfisvNJ9b/ujpeq+t7/MyEdrlIbGImDfITcaUxtr8FlA2Ad1vE3yX5RzZVJcBKzjLXT5MIVb1dPIL2p7MUX7tAmBBAjYPb5W/qz7vBjb3+r7417t3o3dNu2NQsDG1q3Glo2zXXohIOqDGggP2reBQIqPQCmXHjUIVlO4Vk0yS7X9Vnk+hQ20CYHICNjE/vtU97SxrL4zLNo4s8+k6AhYBPvDoVeNAsIKaUDY5G7RiEyZFB+BQi6ZkLDtJEljLFPDS2UTE5kyCQIQaEegULHPyrYevW13iftSuoeXqtUeNjNlUnwENnLpVmPMtq/S1asjewc0OGb6+Jvycu8wu3ERKOSOqcvGATKWq5VgNSGxUM7Gapd2IBAQAbtHa9FQTmm37tdc7ZtwsC0pTgIf5Najvhu2x9w7KSDqizRYbFL/pDyrj7GNjsBKHtlgKaf2DDExdQ/QvkcENrLFC9FgTBAOHo2M4UwxwXCr74L1uSZaCQirRAMn08ZERK5MipfASq55ISQMcSUmcu1adGKuTIJA7ARs4v5dedLliX3I1fxvEYfl/nH2oyNQyKNfJR5MRJxNrQVEXZMG0p32bVmDFDeBR7n3oe1AGgNFNYkt1NbPyrYlQSAGAjZZr5VNNNiP9NhnLxLCwYtuGMMIG3P24PihS2OdBYRVrkE118aiEbYlxUvABtVHZa+EhOHWGJxpkyv/Um0zbUkQCIXARoYWyp81adu+Vwnh4FV3DG2MjT+LOpRdG+olIOpGNMgetG9hLVLcBLZyz0shUWOvRG2uz7WgqE+xhYAPBOweWiv/oWxRhlJb7xLCwbsuGdqgR43Fh76NXCQgrNFq4iYa0bcHwrtuJZNt0JU+m65xuZB9ttSRK8+VSRAYm0ChButlic3YjXdpD+HQhVYUZW083moev2hcXiwgapQagPZexF39mW30BFby0HshYb2gsTnTJldGUAgCaTAChWquIwy2733SvZHLyHfKC++NxUBXBGzefnBRmTMBYcZUg9GiEZl9JiVBYCUvP2tAFqF4eyAo5rI7D8V27PSGwFaWbJSDEgw1vWquvtfnvD7GNnoCNl5vNVfb1klyKiBqizQ4H7Rvg5OUDoFCrn7U4FyH6HI1oeay/Sdl286USRCoCdika9kEw8blJFw3MMZW43ypdmxuzpRJ6RB41Jh9cO3uIALCjNRAnWtj0QjbktIhUMrVR2Vv/oa9D3qN30zX2di1/HO1nWlLip9AKRc3yn8qF7avyXerbZBJY9nG7Z3yW+VMmZQOARvHtxq/tnWeBhMQtaUavA/aN8VLSovAVu6ulC0qUWobfEJUBN+FTQ7YxFoqRyEW9h2sxqvNvcv94+wnQ+BRc+/DkN4OLiDMeA3kuTb2kmWuTEqPwFoum5AoYnNdY3smn2x8W/5xb9+Ok/whUMoUy39U2zLG8SjfbL5damPRhlyZlB6BQi7fanyXQ7s+ioCondDAvtO+KWIm1xpKWttS7trvSaw0uLcxu34gLGy8/6xs23nMfnvgWyEbbGxZRKG0HKtQkG/PSeMt04elsgmHTJmUHgEb948a7x/Gcn1UAWFOVQPdohGLsZykHS8JrGTV5xQm90P61T2Q6Xid7cXN2d5n7ZKOENjo+FbZtv+ttrvPGku2TSppLC3ksIkG25LSJbCW67dj3wOjC4i6f6uBb0Iiq4+xTZJAKa8tKmEvXdp+8kn3xkwQ5hWIvNr+qG1W7du23q8OBb/ZyINt5cUf1dY+2/HvNDYK25KeH8KWYkG0gQFRCoEJh2IKFFdTNFq3WU2U9/p8Vx9jmzSBtbx/1M2w+9JImkRL53UPZSpquU5z7czqD9r+oGzHmpKVO3auqXzTsaLpoI5tlW0ZYT+V+mB5l6aa9Or2Q9tWD11EG0LruOHsfVTVH3Qf2b02SZpUQNQe68awScyiEXl9jG2yBG74Ykm273H8BAHNk590enmiCKfSIFDIzfeaJzdTu+uFgKgh6AZZat+ExKw+xjYpAoVuipukPMZZCLQkoPkxU9FvLYtTLD4CFmkw4bDyxbXvfTHE7KjAXGv3g092YctoBG5Ha4mGIBAYAc2PpUxeBWY25rohYN+J19V3pJsaHdTiVQRi3x+WNfZpJLG/0s2BgEiiq3GyLwHNixadtSiEbUnxEyjkohfLFU2ovYpA7BuoLxP7+dgbHbMvle3+OfajJPAYpVc4BQGHBDQn2lxof7VEiptAKfdu7TtQeeOrq1e+GrZvV6W673Tsfv84+9EQIPoQTVfiyNAEiEIMTXjy+u1hatK/rmhLIAgBUTujGyfTvr2JnCuT4iBgT1RvpLLLONzBCwgMT0Bz4YNa4YFqeNRjtrBWY7ZcUY7Z6CVtebuE0eSUgVW+0TnLZVMZjgVH4GNIN0xwdDE4SgK6Zx7kWBmlc+k5ZUsUN+rTX0ObC4MSEPW4EuRC+Vqfb5XtCZYUJgHruw9hmo7VEJicwOPkFmDAJQRs/rvVd5lFYItLKprq2iAFRA1L0FfaNyFhNxJCQhACS4/qQ/otsE7DXD8IVPPfxg9rsKIDAZvz7DvruurDDpf6VfTKL3P6W1O9H2Frgsv+tXDliARsOcrEHwkCEOhJQPNerkufel7OZeMTWKnJR8195fhNu28xGgFRo9ENNdc+P4tdA/F3a+t9a3/NwzIIhEFAc54JiDwMa5O1spDnt7EIh7oXoxMQtWOVMreIRF4fY+sNAXuH5cYbazAEAgET0FyXyfxvAbsQs+mFnHvUfGfb6FLQ70Cc6g3rsOpL6lblylNlOTc6gfejt0iDEIiUgOa5Uq59iNS9UN2yPrEo641yEaoT5+yONgJx6LhU+lLHLCKRKZOmI7DSDWWijgQBCDgioPltpqosCmFb0nQESjX9qDluNZ0J47WcjICokepGe9D+O2VutBrKeNutmrrWzWVbEgQg4JCA5rY7VWfvf5HGJ2Bz2vtUhEONNzkBYY5Xat1uNoREPRLG2doN9mGcpmgFAukR0NxmUYgsPc8n89iEg/3fJEH89LRrSkkKiBoiQqImMcq2lHi4HqUlGoFAogQ0p+Vy/SlR98d0O2nhUINOWkDUEBASNYlBtzcSEMWgLVA5BCBgEdYvwrAAxSAEEA57WBEQezAQEnsw3O6uJR5+dVsltUEAAk0ENI9lOv5VedZ0nmO9CCAcGrAhIBqgICQaoPQ/ZDfeGwmIsn8VXAkBCHQhoDnsQeXtr85IlxFAOJzgh4A4AWdPSLxVsexEUU4dJ8CLk8fZcAYCgxHQ/MULlf3plrrUXo60Pzs3EUFqIICAaIDSdEg341LHTdFnyqR2BDa6+d60K0opCEDAJQHNWbnqe3JZZwJ1lfLxUfPWKgFfL3Yx2l+ivJjMQQU2oJSvdfhWuTw4zcdmAu+bD3MUAhAYmoDmq0JtrIZuJ5L6N/Lj1uZ4ZZi17FQiEC1BHRar1L1FJPLDc3zeEbC/i0ZAMBggMCEBzVMzNW9LGbYlvSZQ6NCj5irbkjoSQEB0BHZYvBISb3V8eXgu4c+2Znitm9K2JAhAYEICmqOWav7ThCb42PRKRn3UHLXx0bhQbEJAOOop3aSZqrJftlwqp672f9WNuRYHEgQg4AEBzU9PMiP3wJQpTbAHmpWyCYdSW9KFBBAQFwI8vFw3qomHpbKJiUw5tcRvPqTW4/jrPYHqASfV34Yo1UH8RcUAoxQBMQDUukrdtEvt2/JGrpxCMoX/BnWfQlfjY2gENB89yOb70Oy+wN5C11q0gWjoBRBPXYqAOEXH0TnduHNVVS9vOKrVy2re62b94KVlGAUBCNjPXFsUwuajWNNWjq2VTThsYnXSF78QECP2hG7emZq7U7aoRKYcUyp0w97E5BC+QCA2AtXDjImI2FIph1imGLlXERAjA6+b04280L5FJfL6WMDbrWxn6SLgDsT0dAho7nmQt7EsZazly2c9vNiWNDIBBMTIwA+b082c6Vi9vDE7PB/IZ5YuAukozISAEdC8E/JShj2w1NGG0vwhTUMAATEN98ZWdVMvdSK0ly5ZumjsTQ5CwF8Cmmvmsi60pYxCNlu0YaUtCQIQaCJgUQnl35T/VvY5mX1Zkw8cgwAE/Cage/fB58mlsu2btjYXZn7TxDoIeEhAN85C+Yuyj+nOQ2SYBAEItCSgSeWrjxOLbLI5b9HSDYpBAAKnCOhmsqjEnfI3ZR/S0yl7OQcBCPhPQBPJXPlvHyYU2WBixua4mf/ksBACgRLQDWY3/SflqW58a5ebPNDxg9kQ2Cege9m+tKdKNpf8pjzft4l9CEBgBAK68RbKX5THTIQWR+hbmoDAWAQ0eTyNOYGoLZuzmEfG6mDagcApAroZZ8pL5SflIdOnU3ZwDgIQCI+AJgybPywaMGR6UuU2RxG9DG+IYHEqBHSD1u9LfNW+y/RNlXHzpzKQ8DMpArq3LZrpOtkcdKecJQUTZyEQAwG7casb2IWYmMfABB8gAIFmAporPilfmhANzXg5CoFwCWhWuERMPITrOZZDAAJtCGiOsKWMPg8biIY2gCkDgRgIdBQT/MlmDJ2ODxBoQUBzw1y5TUI0tOBJEQhETUAzRR2ZeGqYNf7WMd57iHoE4BwEXhLQPW/vLTSlJx3knYaXuPgEAQgYAU0OFsJcKn9RNvGQQwYCEEiPwN4cYHOBzQk8SKQ3DE56/P+LumonAbOgSwAAAABJRU5ErkJggg==;fontColor=#FFFFFF;" vertex="1" parent="1">
                    <mxGeometry x="1588.5" y="668.08" width="79" height="59.84" as="geometry"/>
                </mxCell>
                <mxCell id="17" value="Gemini API" style="rounded=0;whiteSpace=wrap;html=1;align=center;verticalAlign=top;arcSize=28;fontFamily=Helvetica;fontSize=12;fontColor=default;fillColor=#333333;labelPosition=center;verticalLabelPosition=bottom;" vertex="1" parent="1">
                    <mxGeometry x="1571.5" y="220" width="96" height="96" as="geometry"/>
                </mxCell>
                <mxCell id="19" value="" style="shape=image;verticalLabelPosition=bottom;labelBackgroundColor=default;verticalAlign=top;aspect=fixed;imageAspect=0;image=https://registry.npmmirror.com/@lobehub/icons-static-png/latest/files/dark/gemini-color.png;" vertex="1" parent="1">
                    <mxGeometry x="1580" y="228.5" width="79" height="79" as="geometry"/>
                </mxCell>
                <mxCell id="22" value="ECS Cluster (Fargate Spot)" style="points=[[0,0],[0.25,0],[0.5,0],[0.75,0],[1,0],[1,0.25],[1,0.5],[1,0.75],[1,1],[0.75,1],[0.5,1],[0.25,1],[0,1],[0,0.75],[0,0.5],[0,0.25]];outlineConnect=0;gradientColor=none;html=1;whiteSpace=wrap;fontSize=12;fontStyle=0;container=1;pointerEvents=0;collapsible=0;recursiveResize=0;shape=mxgraph.aws4.groupCenter;grIcon=mxgraph.aws4.group_auto_scaling_group;grStroke=1;strokeColor=#D86613;fillColor=none;verticalAlign=top;align=center;fontColor=#D86613;dashed=1;spacingTop=25;" vertex="1" parent="1">
                    <mxGeometry x="770" y="990" width="720" height="260" as="geometry"/>
                </mxCell>
                <mxCell id="25" value="" style="sketch=0;points=[[0,0,0],[0.25,0,0],[0.5,0,0],[0.75,0,0],[1,0,0],[0,1,0],[0.25,1,0],[0.5,1,0],[0.75,1,0],[1,1,0],[0,0.25,0],[0,0.5,0],[0,0.75,0],[1,0.25,0],[1,0.5,0],[1,0.75,0]];outlineConnect=0;fontColor=#232F3E;fillColor=#ED7100;strokeColor=#ffffff;dashed=0;verticalLabelPosition=bottom;verticalAlign=top;align=center;html=1;fontSize=12;fontStyle=0;aspect=fixed;shape=mxgraph.aws4.resourceIcon;resIcon=mxgraph.aws4.ecs;" vertex="1" parent="22">
                    <mxGeometry x="345" width="30" height="30" as="geometry"/>
                </mxCell>
                <mxCell id="26" value="" style="sketch=0;outlineConnect=0;fontColor=#232F3E;gradientColor=none;fillColor=#ED7100;strokeColor=none;dashed=0;verticalLabelPosition=bottom;verticalAlign=top;align=center;html=1;fontSize=12;fontStyle=0;aspect=fixed;pointerEvents=1;shape=mxgraph.aws4.ecs_service;" vertex="1" parent="22">
                    <mxGeometry x="241" y="80" width="39" height="48" as="geometry"/>
                </mxCell>
                <mxCell id="28" value="" style="sketch=0;outlineConnect=0;fontColor=#232F3E;gradientColor=none;fillColor=#ED7100;strokeColor=none;dashed=0;verticalLabelPosition=bottom;verticalAlign=top;align=center;html=1;fontSize=12;fontStyle=0;aspect=fixed;pointerEvents=1;shape=mxgraph.aws4.ecs_task;" vertex="1" parent="22">
                    <mxGeometry x="320" y="80" width="37" height="48" as="geometry"/>
                </mxCell>
                <mxCell id="27" value="" style="sketch=0;points=[[0,0,0],[0.25,0,0],[0.5,0,0],[0.75,0,0],[1,0,0],[0,1,0],[0.25,1,0],[0.5,1,0],[0.75,1,0],[1,1,0],[0,0.25,0],[0,0.5,0],[0,0.75,0],[1,0.25,0],[1,0.5,0],[1,0.75,0]];outlineConnect=0;fontColor=#232F3E;fillColor=#ED7100;strokeColor=#ffffff;dashed=0;verticalLabelPosition=bottom;verticalAlign=top;align=center;html=1;fontSize=12;fontStyle=0;aspect=fixed;shape=mxgraph.aws4.resourceIcon;resIcon=mxgraph.aws4.ecr;" vertex="1" parent="1">
                    <mxGeometry x="535" y="912" width="48" height="48" as="geometry"/>
                </mxCell>
            </root>
        </mxGraphModel>
    </diagram>
</mxfile>